<mxfile host="app.diagrams.net" agent="Mozilla/5.0 (Windows NT 10.0; Win64; x64) AppleWebKit/537.36 (KHTML, like Gecko) Chrome/136.0.0.0 Safari/537.36" version="27.0.9">
  <diagram name="Sayfa -1" id="iX1DXYvM3w8AolJKkArO">
    <mxGraphModel dx="2977" dy="1703" grid="1" gridSize="10" guides="1" tooltips="1" connect="1" arrows="1" fold="1" page="1" pageScale="1" pageWidth="827" pageHeight="1169" math="0" shadow="0">
      <root>
        <mxCell id="0" />
        <mxCell id="1" parent="0" />
        <mxCell id="vZxhdcHR_vcOyk7ja_Zl-1" value="PsikologKayitlari" style="shape=table;startSize=30;container=1;collapsible=1;childLayout=tableLayout;fixedRows=1;rowLines=0;fontStyle=1;align=center;resizeLast=1;html=1;fillColor=#7F00FF;fontColor=#ffffff;strokeColor=#001DBC;" vertex="1" parent="1">
          <mxGeometry x="740" y="250" width="210" height="300" as="geometry">
            <mxRectangle x="140" y="120" width="100" height="30" as="alternateBounds" />
          </mxGeometry>
        </mxCell>
        <mxCell id="vZxhdcHR_vcOyk7ja_Zl-2" value="" style="shape=tableRow;horizontal=0;startSize=0;swimlaneHead=0;swimlaneBody=0;collapsible=0;dropTarget=0;points=[[0,0.5],[1,0.5]];portConstraint=eastwest;top=0;left=0;right=0;bottom=1;fillColor=#1ba1e2;fontColor=#ffffff;strokeColor=#006EAF;" vertex="1" parent="vZxhdcHR_vcOyk7ja_Zl-1">
          <mxGeometry y="30" width="210" height="30" as="geometry" />
        </mxCell>
        <mxCell id="vZxhdcHR_vcOyk7ja_Zl-3" value="PK" style="shape=partialRectangle;connectable=0;top=0;left=0;bottom=0;right=0;fontStyle=1;overflow=hidden;whiteSpace=wrap;html=1;fillColor=#CC99FF;fontColor=#ffffff;strokeColor=#006EAF;" vertex="1" parent="vZxhdcHR_vcOyk7ja_Zl-2">
          <mxGeometry width="30" height="30" as="geometry">
            <mxRectangle width="30" height="30" as="alternateBounds" />
          </mxGeometry>
        </mxCell>
        <mxCell id="vZxhdcHR_vcOyk7ja_Zl-4" value="PsikologID INT" style="shape=partialRectangle;connectable=0;top=0;left=0;bottom=0;right=0;align=left;spacingLeft=6;fontStyle=5;overflow=hidden;whiteSpace=wrap;html=1;fillColor=#CC99FF;fontColor=#ffffff;strokeColor=#006EAF;" vertex="1" parent="vZxhdcHR_vcOyk7ja_Zl-2">
          <mxGeometry x="30" width="180" height="30" as="geometry">
            <mxRectangle width="180" height="30" as="alternateBounds" />
          </mxGeometry>
        </mxCell>
        <mxCell id="vZxhdcHR_vcOyk7ja_Zl-5" value="" style="shape=tableRow;horizontal=0;startSize=0;swimlaneHead=0;swimlaneBody=0;collapsible=0;dropTarget=0;points=[[0,0.5],[1,0.5]];portConstraint=eastwest;top=0;left=0;right=0;bottom=0;fillColor=#1ba1e2;fontColor=#ffffff;strokeColor=#006EAF;" vertex="1" parent="vZxhdcHR_vcOyk7ja_Zl-1">
          <mxGeometry y="60" width="210" height="30" as="geometry" />
        </mxCell>
        <mxCell id="vZxhdcHR_vcOyk7ja_Zl-6" value="" style="shape=partialRectangle;connectable=0;top=0;left=0;bottom=0;right=0;editable=1;overflow=hidden;whiteSpace=wrap;html=1;fillColor=#CC99FF;fontColor=#ffffff;strokeColor=#006EAF;" vertex="1" parent="vZxhdcHR_vcOyk7ja_Zl-5">
          <mxGeometry width="30" height="30" as="geometry">
            <mxRectangle width="30" height="30" as="alternateBounds" />
          </mxGeometry>
        </mxCell>
        <mxCell id="vZxhdcHR_vcOyk7ja_Zl-7" value="Ad Varchar(50)" style="shape=partialRectangle;connectable=0;top=0;left=0;bottom=0;right=0;align=left;spacingLeft=6;overflow=hidden;whiteSpace=wrap;html=1;fillColor=#CC99FF;fontColor=#ffffff;strokeColor=#006EAF;" vertex="1" parent="vZxhdcHR_vcOyk7ja_Zl-5">
          <mxGeometry x="30" width="180" height="30" as="geometry">
            <mxRectangle width="180" height="30" as="alternateBounds" />
          </mxGeometry>
        </mxCell>
        <mxCell id="vZxhdcHR_vcOyk7ja_Zl-8" value="" style="shape=tableRow;horizontal=0;startSize=0;swimlaneHead=0;swimlaneBody=0;collapsible=0;dropTarget=0;points=[[0,0.5],[1,0.5]];portConstraint=eastwest;top=0;left=0;right=0;bottom=0;fillColor=#1ba1e2;fontColor=#ffffff;strokeColor=#006EAF;" vertex="1" parent="vZxhdcHR_vcOyk7ja_Zl-1">
          <mxGeometry y="90" width="210" height="30" as="geometry" />
        </mxCell>
        <mxCell id="vZxhdcHR_vcOyk7ja_Zl-9" value="" style="shape=partialRectangle;connectable=0;top=0;left=0;bottom=0;right=0;editable=1;overflow=hidden;whiteSpace=wrap;html=1;fillColor=#CC99FF;fontColor=#ffffff;strokeColor=#006EAF;" vertex="1" parent="vZxhdcHR_vcOyk7ja_Zl-8">
          <mxGeometry width="30" height="30" as="geometry">
            <mxRectangle width="30" height="30" as="alternateBounds" />
          </mxGeometry>
        </mxCell>
        <mxCell id="vZxhdcHR_vcOyk7ja_Zl-10" value="Soyad Varchar(50)" style="shape=partialRectangle;connectable=0;top=0;left=0;bottom=0;right=0;align=left;spacingLeft=6;overflow=hidden;whiteSpace=wrap;html=1;fillColor=#CC99FF;fontColor=#ffffff;strokeColor=#006EAF;" vertex="1" parent="vZxhdcHR_vcOyk7ja_Zl-8">
          <mxGeometry x="30" width="180" height="30" as="geometry">
            <mxRectangle width="180" height="30" as="alternateBounds" />
          </mxGeometry>
        </mxCell>
        <mxCell id="vZxhdcHR_vcOyk7ja_Zl-11" value="" style="shape=tableRow;horizontal=0;startSize=0;swimlaneHead=0;swimlaneBody=0;collapsible=0;dropTarget=0;points=[[0,0.5],[1,0.5]];portConstraint=eastwest;top=0;left=0;right=0;bottom=0;fillColor=#1ba1e2;fontColor=#ffffff;strokeColor=#006EAF;" vertex="1" parent="vZxhdcHR_vcOyk7ja_Zl-1">
          <mxGeometry y="120" width="210" height="30" as="geometry" />
        </mxCell>
        <mxCell id="vZxhdcHR_vcOyk7ja_Zl-12" value="" style="shape=partialRectangle;connectable=0;top=0;left=0;bottom=0;right=0;editable=1;overflow=hidden;whiteSpace=wrap;html=1;fillColor=#CC99FF;fontColor=#ffffff;strokeColor=#006EAF;" vertex="1" parent="vZxhdcHR_vcOyk7ja_Zl-11">
          <mxGeometry width="30" height="30" as="geometry">
            <mxRectangle width="30" height="30" as="alternateBounds" />
          </mxGeometry>
        </mxCell>
        <mxCell id="vZxhdcHR_vcOyk7ja_Zl-13" value="Telefon Varchar(15)" style="shape=partialRectangle;connectable=0;top=0;left=0;bottom=0;right=0;align=left;spacingLeft=6;overflow=hidden;whiteSpace=wrap;html=1;fillColor=#CC99FF;fontColor=#ffffff;strokeColor=#006EAF;" vertex="1" parent="vZxhdcHR_vcOyk7ja_Zl-11">
          <mxGeometry x="30" width="180" height="30" as="geometry">
            <mxRectangle width="180" height="30" as="alternateBounds" />
          </mxGeometry>
        </mxCell>
        <mxCell id="vZxhdcHR_vcOyk7ja_Zl-14" value="" style="shape=tableRow;horizontal=0;startSize=0;swimlaneHead=0;swimlaneBody=0;fillColor=#1ba1e2;collapsible=0;dropTarget=0;points=[[0,0.5],[1,0.5]];portConstraint=eastwest;top=0;left=0;right=0;bottom=0;fontColor=#ffffff;strokeColor=#006EAF;" vertex="1" parent="vZxhdcHR_vcOyk7ja_Zl-1">
          <mxGeometry y="150" width="210" height="30" as="geometry" />
        </mxCell>
        <mxCell id="vZxhdcHR_vcOyk7ja_Zl-15" value="" style="shape=partialRectangle;connectable=0;fillColor=#CC99FF;top=0;left=0;bottom=0;right=0;editable=1;overflow=hidden;fontColor=#ffffff;strokeColor=#006EAF;" vertex="1" parent="vZxhdcHR_vcOyk7ja_Zl-14">
          <mxGeometry width="30" height="30" as="geometry">
            <mxRectangle width="30" height="30" as="alternateBounds" />
          </mxGeometry>
        </mxCell>
        <mxCell id="vZxhdcHR_vcOyk7ja_Zl-16" value="Eposta Varchar(150)" style="shape=partialRectangle;connectable=0;fillColor=#CC99FF;top=0;left=0;bottom=0;right=0;align=left;spacingLeft=6;overflow=hidden;fontColor=#ffffff;strokeColor=#006EAF;" vertex="1" parent="vZxhdcHR_vcOyk7ja_Zl-14">
          <mxGeometry x="30" width="180" height="30" as="geometry">
            <mxRectangle width="180" height="30" as="alternateBounds" />
          </mxGeometry>
        </mxCell>
        <mxCell id="vZxhdcHR_vcOyk7ja_Zl-17" value="" style="shape=tableRow;horizontal=0;startSize=0;swimlaneHead=0;swimlaneBody=0;fillColor=#1ba1e2;collapsible=0;dropTarget=0;points=[[0,0.5],[1,0.5]];portConstraint=eastwest;top=0;left=0;right=0;bottom=0;fontColor=#ffffff;strokeColor=#006EAF;" vertex="1" parent="vZxhdcHR_vcOyk7ja_Zl-1">
          <mxGeometry y="180" width="210" height="30" as="geometry" />
        </mxCell>
        <mxCell id="vZxhdcHR_vcOyk7ja_Zl-18" value="" style="shape=partialRectangle;connectable=0;fillColor=#CC99FF;top=0;left=0;bottom=0;right=0;editable=1;overflow=hidden;fontColor=#ffffff;strokeColor=#006EAF;" vertex="1" parent="vZxhdcHR_vcOyk7ja_Zl-17">
          <mxGeometry width="30" height="30" as="geometry">
            <mxRectangle width="30" height="30" as="alternateBounds" />
          </mxGeometry>
        </mxCell>
        <mxCell id="vZxhdcHR_vcOyk7ja_Zl-19" value="Sifre Varchar(150)" style="shape=partialRectangle;connectable=0;fillColor=#CC99FF;top=0;left=0;bottom=0;right=0;align=left;spacingLeft=6;overflow=hidden;fontColor=#ffffff;strokeColor=#006EAF;" vertex="1" parent="vZxhdcHR_vcOyk7ja_Zl-17">
          <mxGeometry x="30" width="180" height="30" as="geometry">
            <mxRectangle width="180" height="30" as="alternateBounds" />
          </mxGeometry>
        </mxCell>
        <mxCell id="vZxhdcHR_vcOyk7ja_Zl-20" value="" style="shape=tableRow;horizontal=0;startSize=0;swimlaneHead=0;swimlaneBody=0;fillColor=#1ba1e2;collapsible=0;dropTarget=0;points=[[0,0.5],[1,0.5]];portConstraint=eastwest;top=0;left=0;right=0;bottom=0;fontColor=#ffffff;strokeColor=#006EAF;" vertex="1" parent="vZxhdcHR_vcOyk7ja_Zl-1">
          <mxGeometry y="210" width="210" height="30" as="geometry" />
        </mxCell>
        <mxCell id="vZxhdcHR_vcOyk7ja_Zl-21" value="" style="shape=partialRectangle;connectable=0;fillColor=#CC99FF;top=0;left=0;bottom=0;right=0;editable=1;overflow=hidden;fontColor=#ffffff;strokeColor=#006EAF;" vertex="1" parent="vZxhdcHR_vcOyk7ja_Zl-20">
          <mxGeometry width="30" height="30" as="geometry">
            <mxRectangle width="30" height="30" as="alternateBounds" />
          </mxGeometry>
        </mxCell>
        <mxCell id="vZxhdcHR_vcOyk7ja_Zl-22" value="Mezuniyet_Yılı INT" style="shape=partialRectangle;connectable=0;fillColor=#CC99FF;top=0;left=0;bottom=0;right=0;align=left;spacingLeft=6;overflow=hidden;fontColor=#ffffff;strokeColor=#006EAF;" vertex="1" parent="vZxhdcHR_vcOyk7ja_Zl-20">
          <mxGeometry x="30" width="180" height="30" as="geometry">
            <mxRectangle width="180" height="30" as="alternateBounds" />
          </mxGeometry>
        </mxCell>
        <mxCell id="vZxhdcHR_vcOyk7ja_Zl-23" value="" style="shape=tableRow;horizontal=0;startSize=0;swimlaneHead=0;swimlaneBody=0;fillColor=#1ba1e2;collapsible=0;dropTarget=0;points=[[0,0.5],[1,0.5]];portConstraint=eastwest;top=0;left=0;right=0;bottom=0;fontColor=#ffffff;strokeColor=#006EAF;" vertex="1" parent="vZxhdcHR_vcOyk7ja_Zl-1">
          <mxGeometry y="240" width="210" height="30" as="geometry" />
        </mxCell>
        <mxCell id="vZxhdcHR_vcOyk7ja_Zl-24" value="" style="shape=partialRectangle;connectable=0;fillColor=#CC99FF;top=0;left=0;bottom=0;right=0;editable=1;overflow=hidden;fontColor=#ffffff;strokeColor=#006EAF;" vertex="1" parent="vZxhdcHR_vcOyk7ja_Zl-23">
          <mxGeometry width="30" height="30" as="geometry">
            <mxRectangle width="30" height="30" as="alternateBounds" />
          </mxGeometry>
        </mxCell>
        <mxCell id="vZxhdcHR_vcOyk7ja_Zl-25" value="Lisans_Belgesi_Url Text" style="shape=partialRectangle;connectable=0;fillColor=#CC99FF;top=0;left=0;bottom=0;right=0;align=left;spacingLeft=6;overflow=hidden;fontColor=#ffffff;strokeColor=#006EAF;" vertex="1" parent="vZxhdcHR_vcOyk7ja_Zl-23">
          <mxGeometry x="30" width="180" height="30" as="geometry">
            <mxRectangle width="180" height="30" as="alternateBounds" />
          </mxGeometry>
        </mxCell>
        <mxCell id="vZxhdcHR_vcOyk7ja_Zl-26" value="" style="shape=tableRow;horizontal=0;startSize=0;swimlaneHead=0;swimlaneBody=0;fillColor=#1ba1e2;collapsible=0;dropTarget=0;points=[[0,0.5],[1,0.5]];portConstraint=eastwest;top=0;left=0;right=0;bottom=0;fontColor=#ffffff;strokeColor=#006EAF;" vertex="1" parent="vZxhdcHR_vcOyk7ja_Zl-1">
          <mxGeometry y="270" width="210" height="30" as="geometry" />
        </mxCell>
        <mxCell id="vZxhdcHR_vcOyk7ja_Zl-27" value="" style="shape=partialRectangle;connectable=0;fillColor=#CC99FF;top=0;left=0;bottom=0;right=0;editable=1;overflow=hidden;fontColor=#ffffff;strokeColor=#006EAF;" vertex="1" parent="vZxhdcHR_vcOyk7ja_Zl-26">
          <mxGeometry width="30" height="30" as="geometry">
            <mxRectangle width="30" height="30" as="alternateBounds" />
          </mxGeometry>
        </mxCell>
        <mxCell id="vZxhdcHR_vcOyk7ja_Zl-28" value="Kayit_Tarihi DATETIME" style="shape=partialRectangle;connectable=0;fillColor=#CC99FF;top=0;left=0;bottom=0;right=0;align=left;spacingLeft=6;overflow=hidden;fontColor=#ffffff;strokeColor=#006EAF;" vertex="1" parent="vZxhdcHR_vcOyk7ja_Zl-26">
          <mxGeometry x="30" width="180" height="30" as="geometry">
            <mxRectangle width="180" height="30" as="alternateBounds" />
          </mxGeometry>
        </mxCell>
        <mxCell id="vZxhdcHR_vcOyk7ja_Zl-29" value="ÖğrenciKayitlari" style="shape=table;startSize=30;container=1;collapsible=1;childLayout=tableLayout;fixedRows=1;rowLines=0;fontStyle=1;align=center;resizeLast=1;html=1;fillColor=#7F00FF;fontColor=#ffffff;strokeColor=#001DBC;" vertex="1" parent="1">
          <mxGeometry x="740" y="830" width="210" height="300" as="geometry">
            <mxRectangle x="140" y="120" width="100" height="30" as="alternateBounds" />
          </mxGeometry>
        </mxCell>
        <mxCell id="vZxhdcHR_vcOyk7ja_Zl-30" value="" style="shape=tableRow;horizontal=0;startSize=0;swimlaneHead=0;swimlaneBody=0;collapsible=0;dropTarget=0;points=[[0,0.5],[1,0.5]];portConstraint=eastwest;top=0;left=0;right=0;bottom=1;fillColor=#1ba1e2;fontColor=#ffffff;strokeColor=#006EAF;" vertex="1" parent="vZxhdcHR_vcOyk7ja_Zl-29">
          <mxGeometry y="30" width="210" height="30" as="geometry" />
        </mxCell>
        <mxCell id="vZxhdcHR_vcOyk7ja_Zl-31" value="PK" style="shape=partialRectangle;connectable=0;top=0;left=0;bottom=0;right=0;fontStyle=1;overflow=hidden;whiteSpace=wrap;html=1;fillColor=#CC99FF;fontColor=#ffffff;strokeColor=#006EAF;" vertex="1" parent="vZxhdcHR_vcOyk7ja_Zl-30">
          <mxGeometry width="30" height="30" as="geometry">
            <mxRectangle width="30" height="30" as="alternateBounds" />
          </mxGeometry>
        </mxCell>
        <mxCell id="vZxhdcHR_vcOyk7ja_Zl-32" value="OgrenciID INT" style="shape=partialRectangle;connectable=0;top=0;left=0;bottom=0;right=0;align=left;spacingLeft=6;fontStyle=5;overflow=hidden;whiteSpace=wrap;html=1;fillColor=#CC99FF;fontColor=#ffffff;strokeColor=#006EAF;" vertex="1" parent="vZxhdcHR_vcOyk7ja_Zl-30">
          <mxGeometry x="30" width="180" height="30" as="geometry">
            <mxRectangle width="180" height="30" as="alternateBounds" />
          </mxGeometry>
        </mxCell>
        <mxCell id="vZxhdcHR_vcOyk7ja_Zl-33" value="" style="shape=tableRow;horizontal=0;startSize=0;swimlaneHead=0;swimlaneBody=0;collapsible=0;dropTarget=0;points=[[0,0.5],[1,0.5]];portConstraint=eastwest;top=0;left=0;right=0;bottom=0;fillColor=#1ba1e2;fontColor=#ffffff;strokeColor=#006EAF;" vertex="1" parent="vZxhdcHR_vcOyk7ja_Zl-29">
          <mxGeometry y="60" width="210" height="30" as="geometry" />
        </mxCell>
        <mxCell id="vZxhdcHR_vcOyk7ja_Zl-34" value="" style="shape=partialRectangle;connectable=0;top=0;left=0;bottom=0;right=0;editable=1;overflow=hidden;whiteSpace=wrap;html=1;fillColor=#CC99FF;fontColor=#ffffff;strokeColor=#006EAF;" vertex="1" parent="vZxhdcHR_vcOyk7ja_Zl-33">
          <mxGeometry width="30" height="30" as="geometry">
            <mxRectangle width="30" height="30" as="alternateBounds" />
          </mxGeometry>
        </mxCell>
        <mxCell id="vZxhdcHR_vcOyk7ja_Zl-35" value="Ad Varchar(50)" style="shape=partialRectangle;connectable=0;top=0;left=0;bottom=0;right=0;align=left;spacingLeft=6;overflow=hidden;whiteSpace=wrap;html=1;fillColor=#CC99FF;fontColor=#ffffff;strokeColor=#006EAF;" vertex="1" parent="vZxhdcHR_vcOyk7ja_Zl-33">
          <mxGeometry x="30" width="180" height="30" as="geometry">
            <mxRectangle width="180" height="30" as="alternateBounds" />
          </mxGeometry>
        </mxCell>
        <mxCell id="vZxhdcHR_vcOyk7ja_Zl-36" value="" style="shape=tableRow;horizontal=0;startSize=0;swimlaneHead=0;swimlaneBody=0;collapsible=0;dropTarget=0;points=[[0,0.5],[1,0.5]];portConstraint=eastwest;top=0;left=0;right=0;bottom=0;fillColor=#1ba1e2;fontColor=#ffffff;strokeColor=#006EAF;" vertex="1" parent="vZxhdcHR_vcOyk7ja_Zl-29">
          <mxGeometry y="90" width="210" height="30" as="geometry" />
        </mxCell>
        <mxCell id="vZxhdcHR_vcOyk7ja_Zl-37" value="" style="shape=partialRectangle;connectable=0;top=0;left=0;bottom=0;right=0;editable=1;overflow=hidden;whiteSpace=wrap;html=1;fillColor=#CC99FF;fontColor=#ffffff;strokeColor=#006EAF;" vertex="1" parent="vZxhdcHR_vcOyk7ja_Zl-36">
          <mxGeometry width="30" height="30" as="geometry">
            <mxRectangle width="30" height="30" as="alternateBounds" />
          </mxGeometry>
        </mxCell>
        <mxCell id="vZxhdcHR_vcOyk7ja_Zl-38" value="Soyad Varchar(50)" style="shape=partialRectangle;connectable=0;top=0;left=0;bottom=0;right=0;align=left;spacingLeft=6;overflow=hidden;whiteSpace=wrap;html=1;fillColor=#CC99FF;fontColor=#ffffff;strokeColor=#006EAF;" vertex="1" parent="vZxhdcHR_vcOyk7ja_Zl-36">
          <mxGeometry x="30" width="180" height="30" as="geometry">
            <mxRectangle width="180" height="30" as="alternateBounds" />
          </mxGeometry>
        </mxCell>
        <mxCell id="vZxhdcHR_vcOyk7ja_Zl-39" value="" style="shape=tableRow;horizontal=0;startSize=0;swimlaneHead=0;swimlaneBody=0;collapsible=0;dropTarget=0;points=[[0,0.5],[1,0.5]];portConstraint=eastwest;top=0;left=0;right=0;bottom=0;fillColor=#1ba1e2;fontColor=#ffffff;strokeColor=#006EAF;" vertex="1" parent="vZxhdcHR_vcOyk7ja_Zl-29">
          <mxGeometry y="120" width="210" height="30" as="geometry" />
        </mxCell>
        <mxCell id="vZxhdcHR_vcOyk7ja_Zl-40" value="" style="shape=partialRectangle;connectable=0;top=0;left=0;bottom=0;right=0;editable=1;overflow=hidden;whiteSpace=wrap;html=1;fillColor=#CC99FF;fontColor=#ffffff;strokeColor=#006EAF;" vertex="1" parent="vZxhdcHR_vcOyk7ja_Zl-39">
          <mxGeometry width="30" height="30" as="geometry">
            <mxRectangle width="30" height="30" as="alternateBounds" />
          </mxGeometry>
        </mxCell>
        <mxCell id="vZxhdcHR_vcOyk7ja_Zl-41" value="Telefon Varchar(15)" style="shape=partialRectangle;connectable=0;top=0;left=0;bottom=0;right=0;align=left;spacingLeft=6;overflow=hidden;whiteSpace=wrap;html=1;fillColor=#CC99FF;fontColor=#ffffff;strokeColor=#006EAF;" vertex="1" parent="vZxhdcHR_vcOyk7ja_Zl-39">
          <mxGeometry x="30" width="180" height="30" as="geometry">
            <mxRectangle width="180" height="30" as="alternateBounds" />
          </mxGeometry>
        </mxCell>
        <mxCell id="vZxhdcHR_vcOyk7ja_Zl-42" value="" style="shape=tableRow;horizontal=0;startSize=0;swimlaneHead=0;swimlaneBody=0;fillColor=#1ba1e2;collapsible=0;dropTarget=0;points=[[0,0.5],[1,0.5]];portConstraint=eastwest;top=0;left=0;right=0;bottom=0;fontColor=#ffffff;strokeColor=#006EAF;" vertex="1" parent="vZxhdcHR_vcOyk7ja_Zl-29">
          <mxGeometry y="150" width="210" height="30" as="geometry" />
        </mxCell>
        <mxCell id="vZxhdcHR_vcOyk7ja_Zl-43" value="" style="shape=partialRectangle;connectable=0;fillColor=#CC99FF;top=0;left=0;bottom=0;right=0;editable=1;overflow=hidden;fontColor=#ffffff;strokeColor=#006EAF;" vertex="1" parent="vZxhdcHR_vcOyk7ja_Zl-42">
          <mxGeometry width="30" height="30" as="geometry">
            <mxRectangle width="30" height="30" as="alternateBounds" />
          </mxGeometry>
        </mxCell>
        <mxCell id="vZxhdcHR_vcOyk7ja_Zl-44" value="Eposta Varchar(150)" style="shape=partialRectangle;connectable=0;fillColor=#CC99FF;top=0;left=0;bottom=0;right=0;align=left;spacingLeft=6;overflow=hidden;fontColor=#ffffff;strokeColor=#006EAF;" vertex="1" parent="vZxhdcHR_vcOyk7ja_Zl-42">
          <mxGeometry x="30" width="180" height="30" as="geometry">
            <mxRectangle width="180" height="30" as="alternateBounds" />
          </mxGeometry>
        </mxCell>
        <mxCell id="vZxhdcHR_vcOyk7ja_Zl-45" value="" style="shape=tableRow;horizontal=0;startSize=0;swimlaneHead=0;swimlaneBody=0;fillColor=#1ba1e2;collapsible=0;dropTarget=0;points=[[0,0.5],[1,0.5]];portConstraint=eastwest;top=0;left=0;right=0;bottom=0;fontColor=#ffffff;strokeColor=#006EAF;" vertex="1" parent="vZxhdcHR_vcOyk7ja_Zl-29">
          <mxGeometry y="180" width="210" height="30" as="geometry" />
        </mxCell>
        <mxCell id="vZxhdcHR_vcOyk7ja_Zl-46" value="" style="shape=partialRectangle;connectable=0;fillColor=#CC99FF;top=0;left=0;bottom=0;right=0;editable=1;overflow=hidden;fontColor=#ffffff;strokeColor=#006EAF;" vertex="1" parent="vZxhdcHR_vcOyk7ja_Zl-45">
          <mxGeometry width="30" height="30" as="geometry">
            <mxRectangle width="30" height="30" as="alternateBounds" />
          </mxGeometry>
        </mxCell>
        <mxCell id="vZxhdcHR_vcOyk7ja_Zl-47" value="Sifre Varchar(150)" style="shape=partialRectangle;connectable=0;fillColor=#CC99FF;top=0;left=0;bottom=0;right=0;align=left;spacingLeft=6;overflow=hidden;fontColor=#ffffff;strokeColor=#006EAF;" vertex="1" parent="vZxhdcHR_vcOyk7ja_Zl-45">
          <mxGeometry x="30" width="180" height="30" as="geometry">
            <mxRectangle width="180" height="30" as="alternateBounds" />
          </mxGeometry>
        </mxCell>
        <mxCell id="vZxhdcHR_vcOyk7ja_Zl-48" value="" style="shape=tableRow;horizontal=0;startSize=0;swimlaneHead=0;swimlaneBody=0;fillColor=#1ba1e2;collapsible=0;dropTarget=0;points=[[0,0.5],[1,0.5]];portConstraint=eastwest;top=0;left=0;right=0;bottom=0;fontColor=#ffffff;strokeColor=#006EAF;" vertex="1" parent="vZxhdcHR_vcOyk7ja_Zl-29">
          <mxGeometry y="210" width="210" height="30" as="geometry" />
        </mxCell>
        <mxCell id="vZxhdcHR_vcOyk7ja_Zl-49" value="" style="shape=partialRectangle;connectable=0;fillColor=#CC99FF;top=0;left=0;bottom=0;right=0;editable=1;overflow=hidden;fontColor=#ffffff;strokeColor=#006EAF;" vertex="1" parent="vZxhdcHR_vcOyk7ja_Zl-48">
          <mxGeometry width="30" height="30" as="geometry">
            <mxRectangle width="30" height="30" as="alternateBounds" />
          </mxGeometry>
        </mxCell>
        <mxCell id="vZxhdcHR_vcOyk7ja_Zl-50" value="Sinav_Yılı INT" style="shape=partialRectangle;connectable=0;fillColor=#CC99FF;top=0;left=0;bottom=0;right=0;align=left;spacingLeft=6;overflow=hidden;fontColor=#ffffff;strokeColor=#006EAF;" vertex="1" parent="vZxhdcHR_vcOyk7ja_Zl-48">
          <mxGeometry x="30" width="180" height="30" as="geometry">
            <mxRectangle width="180" height="30" as="alternateBounds" />
          </mxGeometry>
        </mxCell>
        <mxCell id="vZxhdcHR_vcOyk7ja_Zl-51" value="" style="shape=tableRow;horizontal=0;startSize=0;swimlaneHead=0;swimlaneBody=0;fillColor=#1ba1e2;collapsible=0;dropTarget=0;points=[[0,0.5],[1,0.5]];portConstraint=eastwest;top=0;left=0;right=0;bottom=0;fontColor=#ffffff;strokeColor=#006EAF;" vertex="1" parent="vZxhdcHR_vcOyk7ja_Zl-29">
          <mxGeometry y="240" width="210" height="30" as="geometry" />
        </mxCell>
        <mxCell id="vZxhdcHR_vcOyk7ja_Zl-52" value="" style="shape=partialRectangle;connectable=0;fillColor=#CC99FF;top=0;left=0;bottom=0;right=0;editable=1;overflow=hidden;fontColor=#ffffff;strokeColor=#006EAF;" vertex="1" parent="vZxhdcHR_vcOyk7ja_Zl-51">
          <mxGeometry width="30" height="30" as="geometry">
            <mxRectangle width="30" height="30" as="alternateBounds" />
          </mxGeometry>
        </mxCell>
        <mxCell id="vZxhdcHR_vcOyk7ja_Zl-53" value="Sinav_Turu Varchar(50)" style="shape=partialRectangle;connectable=0;fillColor=#CC99FF;top=0;left=0;bottom=0;right=0;align=left;spacingLeft=6;overflow=hidden;fontColor=#ffffff;strokeColor=#006EAF;" vertex="1" parent="vZxhdcHR_vcOyk7ja_Zl-51">
          <mxGeometry x="30" width="180" height="30" as="geometry">
            <mxRectangle width="180" height="30" as="alternateBounds" />
          </mxGeometry>
        </mxCell>
        <mxCell id="vZxhdcHR_vcOyk7ja_Zl-54" value="" style="shape=tableRow;horizontal=0;startSize=0;swimlaneHead=0;swimlaneBody=0;fillColor=#1ba1e2;collapsible=0;dropTarget=0;points=[[0,0.5],[1,0.5]];portConstraint=eastwest;top=0;left=0;right=0;bottom=0;fontColor=#ffffff;strokeColor=#006EAF;" vertex="1" parent="vZxhdcHR_vcOyk7ja_Zl-29">
          <mxGeometry y="270" width="210" height="30" as="geometry" />
        </mxCell>
        <mxCell id="vZxhdcHR_vcOyk7ja_Zl-55" value="" style="shape=partialRectangle;connectable=0;fillColor=#CC99FF;top=0;left=0;bottom=0;right=0;editable=1;overflow=hidden;fontColor=#ffffff;strokeColor=#006EAF;" vertex="1" parent="vZxhdcHR_vcOyk7ja_Zl-54">
          <mxGeometry width="30" height="30" as="geometry">
            <mxRectangle width="30" height="30" as="alternateBounds" />
          </mxGeometry>
        </mxCell>
        <mxCell id="vZxhdcHR_vcOyk7ja_Zl-56" value="Kayit_Tarihi DATETIME" style="shape=partialRectangle;connectable=0;fillColor=#CC99FF;top=0;left=0;bottom=0;right=0;align=left;spacingLeft=6;overflow=hidden;fontColor=#ffffff;strokeColor=#006EAF;" vertex="1" parent="vZxhdcHR_vcOyk7ja_Zl-54">
          <mxGeometry x="30" width="180" height="30" as="geometry">
            <mxRectangle width="180" height="30" as="alternateBounds" />
          </mxGeometry>
        </mxCell>
        <mxCell id="vZxhdcHR_vcOyk7ja_Zl-57" value="RandevuKayitlari" style="shape=table;startSize=30;container=1;collapsible=1;childLayout=tableLayout;fixedRows=1;rowLines=0;fontStyle=1;align=center;resizeLast=1;html=1;fillColor=#7F00FF;fontColor=#ffffff;strokeColor=#001DBC;" vertex="1" parent="1">
          <mxGeometry x="340" y="725" width="210" height="240" as="geometry">
            <mxRectangle x="140" y="120" width="100" height="30" as="alternateBounds" />
          </mxGeometry>
        </mxCell>
        <mxCell id="vZxhdcHR_vcOyk7ja_Zl-58" value="" style="shape=tableRow;horizontal=0;startSize=0;swimlaneHead=0;swimlaneBody=0;collapsible=0;dropTarget=0;points=[[0,0.5],[1,0.5]];portConstraint=eastwest;top=0;left=0;right=0;bottom=1;fillColor=#1ba1e2;fontColor=#ffffff;strokeColor=#006EAF;" vertex="1" parent="vZxhdcHR_vcOyk7ja_Zl-57">
          <mxGeometry y="30" width="210" height="30" as="geometry" />
        </mxCell>
        <mxCell id="vZxhdcHR_vcOyk7ja_Zl-59" value="PK" style="shape=partialRectangle;connectable=0;top=0;left=0;bottom=0;right=0;fontStyle=1;overflow=hidden;whiteSpace=wrap;html=1;fillColor=#CC99FF;fontColor=#ffffff;strokeColor=#006EAF;" vertex="1" parent="vZxhdcHR_vcOyk7ja_Zl-58">
          <mxGeometry width="30" height="30" as="geometry">
            <mxRectangle width="30" height="30" as="alternateBounds" />
          </mxGeometry>
        </mxCell>
        <mxCell id="vZxhdcHR_vcOyk7ja_Zl-60" value="RandevuID INT" style="shape=partialRectangle;connectable=0;top=0;left=0;bottom=0;right=0;align=left;spacingLeft=6;fontStyle=5;overflow=hidden;whiteSpace=wrap;html=1;fillColor=#CC99FF;fontColor=#ffffff;strokeColor=#006EAF;" vertex="1" parent="vZxhdcHR_vcOyk7ja_Zl-58">
          <mxGeometry x="30" width="180" height="30" as="geometry">
            <mxRectangle width="180" height="30" as="alternateBounds" />
          </mxGeometry>
        </mxCell>
        <mxCell id="vZxhdcHR_vcOyk7ja_Zl-61" value="" style="shape=tableRow;horizontal=0;startSize=0;swimlaneHead=0;swimlaneBody=0;collapsible=0;dropTarget=0;points=[[0,0.5],[1,0.5]];portConstraint=eastwest;top=0;left=0;right=0;bottom=0;fillColor=#1ba1e2;fontColor=#ffffff;strokeColor=#006EAF;" vertex="1" parent="vZxhdcHR_vcOyk7ja_Zl-57">
          <mxGeometry y="60" width="210" height="30" as="geometry" />
        </mxCell>
        <mxCell id="vZxhdcHR_vcOyk7ja_Zl-62" value="FK" style="shape=partialRectangle;connectable=0;top=0;left=0;bottom=0;right=0;editable=1;overflow=hidden;whiteSpace=wrap;html=1;fillColor=#CC99FF;fontColor=#ffffff;strokeColor=#006EAF;" vertex="1" parent="vZxhdcHR_vcOyk7ja_Zl-61">
          <mxGeometry width="30" height="30" as="geometry">
            <mxRectangle width="30" height="30" as="alternateBounds" />
          </mxGeometry>
        </mxCell>
        <mxCell id="vZxhdcHR_vcOyk7ja_Zl-63" value="PsikologID INT" style="shape=partialRectangle;connectable=0;top=0;left=0;bottom=0;right=0;align=left;spacingLeft=6;overflow=hidden;whiteSpace=wrap;html=1;fillColor=#CC99FF;fontColor=#ffffff;strokeColor=#006EAF;" vertex="1" parent="vZxhdcHR_vcOyk7ja_Zl-61">
          <mxGeometry x="30" width="180" height="30" as="geometry">
            <mxRectangle width="180" height="30" as="alternateBounds" />
          </mxGeometry>
        </mxCell>
        <mxCell id="vZxhdcHR_vcOyk7ja_Zl-64" value="" style="shape=tableRow;horizontal=0;startSize=0;swimlaneHead=0;swimlaneBody=0;collapsible=0;dropTarget=0;points=[[0,0.5],[1,0.5]];portConstraint=eastwest;top=0;left=0;right=0;bottom=0;fillColor=#1ba1e2;fontColor=#ffffff;strokeColor=#006EAF;" vertex="1" parent="vZxhdcHR_vcOyk7ja_Zl-57">
          <mxGeometry y="90" width="210" height="30" as="geometry" />
        </mxCell>
        <mxCell id="vZxhdcHR_vcOyk7ja_Zl-65" value="FK" style="shape=partialRectangle;connectable=0;top=0;left=0;bottom=0;right=0;editable=1;overflow=hidden;whiteSpace=wrap;html=1;fillColor=#CC99FF;fontColor=#ffffff;strokeColor=#006EAF;" vertex="1" parent="vZxhdcHR_vcOyk7ja_Zl-64">
          <mxGeometry width="30" height="30" as="geometry">
            <mxRectangle width="30" height="30" as="alternateBounds" />
          </mxGeometry>
        </mxCell>
        <mxCell id="vZxhdcHR_vcOyk7ja_Zl-66" value="OgrenciID INT" style="shape=partialRectangle;connectable=0;top=0;left=0;bottom=0;right=0;align=left;spacingLeft=6;overflow=hidden;whiteSpace=wrap;html=1;fillColor=#CC99FF;fontColor=#ffffff;strokeColor=#006EAF;" vertex="1" parent="vZxhdcHR_vcOyk7ja_Zl-64">
          <mxGeometry x="30" width="180" height="30" as="geometry">
            <mxRectangle width="180" height="30" as="alternateBounds" />
          </mxGeometry>
        </mxCell>
        <mxCell id="vZxhdcHR_vcOyk7ja_Zl-67" value="" style="shape=tableRow;horizontal=0;startSize=0;swimlaneHead=0;swimlaneBody=0;collapsible=0;dropTarget=0;points=[[0,0.5],[1,0.5]];portConstraint=eastwest;top=0;left=0;right=0;bottom=0;fillColor=#1ba1e2;fontColor=#ffffff;strokeColor=#006EAF;" vertex="1" parent="vZxhdcHR_vcOyk7ja_Zl-57">
          <mxGeometry y="120" width="210" height="30" as="geometry" />
        </mxCell>
        <mxCell id="vZxhdcHR_vcOyk7ja_Zl-68" value="" style="shape=partialRectangle;connectable=0;top=0;left=0;bottom=0;right=0;editable=1;overflow=hidden;whiteSpace=wrap;html=1;fillColor=#CC99FF;fontColor=#ffffff;strokeColor=#006EAF;" vertex="1" parent="vZxhdcHR_vcOyk7ja_Zl-67">
          <mxGeometry width="30" height="30" as="geometry">
            <mxRectangle width="30" height="30" as="alternateBounds" />
          </mxGeometry>
        </mxCell>
        <mxCell id="vZxhdcHR_vcOyk7ja_Zl-69" value="Tarih DATE" style="shape=partialRectangle;connectable=0;top=0;left=0;bottom=0;right=0;align=left;spacingLeft=6;overflow=hidden;whiteSpace=wrap;html=1;fillColor=#CC99FF;fontColor=#ffffff;strokeColor=#006EAF;" vertex="1" parent="vZxhdcHR_vcOyk7ja_Zl-67">
          <mxGeometry x="30" width="180" height="30" as="geometry">
            <mxRectangle width="180" height="30" as="alternateBounds" />
          </mxGeometry>
        </mxCell>
        <mxCell id="vZxhdcHR_vcOyk7ja_Zl-70" value="" style="shape=tableRow;horizontal=0;startSize=0;swimlaneHead=0;swimlaneBody=0;fillColor=#1ba1e2;collapsible=0;dropTarget=0;points=[[0,0.5],[1,0.5]];portConstraint=eastwest;top=0;left=0;right=0;bottom=0;fontColor=#ffffff;strokeColor=#006EAF;" vertex="1" parent="vZxhdcHR_vcOyk7ja_Zl-57">
          <mxGeometry y="150" width="210" height="30" as="geometry" />
        </mxCell>
        <mxCell id="vZxhdcHR_vcOyk7ja_Zl-71" value="" style="shape=partialRectangle;connectable=0;fillColor=#CC99FF;top=0;left=0;bottom=0;right=0;editable=1;overflow=hidden;fontColor=#ffffff;strokeColor=#006EAF;" vertex="1" parent="vZxhdcHR_vcOyk7ja_Zl-70">
          <mxGeometry width="30" height="30" as="geometry">
            <mxRectangle width="30" height="30" as="alternateBounds" />
          </mxGeometry>
        </mxCell>
        <mxCell id="vZxhdcHR_vcOyk7ja_Zl-72" value="Saat TIME" style="shape=partialRectangle;connectable=0;fillColor=#CC99FF;top=0;left=0;bottom=0;right=0;align=left;spacingLeft=6;overflow=hidden;fontColor=#ffffff;strokeColor=#006EAF;" vertex="1" parent="vZxhdcHR_vcOyk7ja_Zl-70">
          <mxGeometry x="30" width="180" height="30" as="geometry">
            <mxRectangle width="180" height="30" as="alternateBounds" />
          </mxGeometry>
        </mxCell>
        <mxCell id="vZxhdcHR_vcOyk7ja_Zl-73" value="" style="shape=tableRow;horizontal=0;startSize=0;swimlaneHead=0;swimlaneBody=0;fillColor=#1ba1e2;collapsible=0;dropTarget=0;points=[[0,0.5],[1,0.5]];portConstraint=eastwest;top=0;left=0;right=0;bottom=0;fontColor=#ffffff;strokeColor=#006EAF;" vertex="1" parent="vZxhdcHR_vcOyk7ja_Zl-57">
          <mxGeometry y="180" width="210" height="30" as="geometry" />
        </mxCell>
        <mxCell id="vZxhdcHR_vcOyk7ja_Zl-74" value="" style="shape=partialRectangle;connectable=0;fillColor=#CC99FF;top=0;left=0;bottom=0;right=0;editable=1;overflow=hidden;fontColor=#ffffff;strokeColor=#006EAF;" vertex="1" parent="vZxhdcHR_vcOyk7ja_Zl-73">
          <mxGeometry width="30" height="30" as="geometry">
            <mxRectangle width="30" height="30" as="alternateBounds" />
          </mxGeometry>
        </mxCell>
        <mxCell id="vZxhdcHR_vcOyk7ja_Zl-75" value="Randevu_Durumu Varchar(50)" style="shape=partialRectangle;connectable=0;fillColor=#CC99FF;top=0;left=0;bottom=0;right=0;align=left;spacingLeft=6;overflow=hidden;fontColor=#ffffff;strokeColor=#006EAF;" vertex="1" parent="vZxhdcHR_vcOyk7ja_Zl-73">
          <mxGeometry x="30" width="180" height="30" as="geometry">
            <mxRectangle width="180" height="30" as="alternateBounds" />
          </mxGeometry>
        </mxCell>
        <mxCell id="vZxhdcHR_vcOyk7ja_Zl-76" value="" style="shape=tableRow;horizontal=0;startSize=0;swimlaneHead=0;swimlaneBody=0;fillColor=#1ba1e2;collapsible=0;dropTarget=0;points=[[0,0.5],[1,0.5]];portConstraint=eastwest;top=0;left=0;right=0;bottom=0;fontColor=#ffffff;strokeColor=#006EAF;" vertex="1" parent="vZxhdcHR_vcOyk7ja_Zl-57">
          <mxGeometry y="210" width="210" height="30" as="geometry" />
        </mxCell>
        <mxCell id="vZxhdcHR_vcOyk7ja_Zl-77" value="" style="shape=partialRectangle;connectable=0;fillColor=#CC99FF;top=0;left=0;bottom=0;right=0;editable=1;overflow=hidden;fontColor=#ffffff;strokeColor=#006EAF;" vertex="1" parent="vZxhdcHR_vcOyk7ja_Zl-76">
          <mxGeometry width="30" height="30" as="geometry">
            <mxRectangle width="30" height="30" as="alternateBounds" />
          </mxGeometry>
        </mxCell>
        <mxCell id="vZxhdcHR_vcOyk7ja_Zl-78" value="Olusturulma_Tarihi DATETIME" style="shape=partialRectangle;connectable=0;fillColor=#CC99FF;top=0;left=0;bottom=0;right=0;align=left;spacingLeft=6;overflow=hidden;fontColor=#ffffff;strokeColor=#006EAF;" vertex="1" parent="vZxhdcHR_vcOyk7ja_Zl-76">
          <mxGeometry x="30" width="180" height="30" as="geometry">
            <mxRectangle width="180" height="30" as="alternateBounds" />
          </mxGeometry>
        </mxCell>
        <mxCell id="vZxhdcHR_vcOyk7ja_Zl-79" value="GörüşmeAltyapisiKayitlari" style="shape=table;startSize=30;container=1;collapsible=1;childLayout=tableLayout;fixedRows=1;rowLines=0;fontStyle=1;align=center;resizeLast=1;html=1;fillColor=#7F00FF;fontColor=#ffffff;strokeColor=#001DBC;" vertex="1" parent="1">
          <mxGeometry x="740" y="584.5" width="210" height="210" as="geometry">
            <mxRectangle x="140" y="120" width="100" height="30" as="alternateBounds" />
          </mxGeometry>
        </mxCell>
        <mxCell id="vZxhdcHR_vcOyk7ja_Zl-80" value="" style="shape=tableRow;horizontal=0;startSize=0;swimlaneHead=0;swimlaneBody=0;collapsible=0;dropTarget=0;points=[[0,0.5],[1,0.5]];portConstraint=eastwest;top=0;left=0;right=0;bottom=1;fillColor=#1ba1e2;fontColor=#ffffff;strokeColor=#006EAF;" vertex="1" parent="vZxhdcHR_vcOyk7ja_Zl-79">
          <mxGeometry y="30" width="210" height="30" as="geometry" />
        </mxCell>
        <mxCell id="vZxhdcHR_vcOyk7ja_Zl-81" value="PK" style="shape=partialRectangle;connectable=0;top=0;left=0;bottom=0;right=0;fontStyle=1;overflow=hidden;whiteSpace=wrap;html=1;fillColor=#CC99FF;fontColor=#ffffff;strokeColor=#006EAF;" vertex="1" parent="vZxhdcHR_vcOyk7ja_Zl-80">
          <mxGeometry width="30" height="30" as="geometry">
            <mxRectangle width="30" height="30" as="alternateBounds" />
          </mxGeometry>
        </mxCell>
        <mxCell id="vZxhdcHR_vcOyk7ja_Zl-82" value="GorusmeID INT" style="shape=partialRectangle;connectable=0;top=0;left=0;bottom=0;right=0;align=left;spacingLeft=6;fontStyle=5;overflow=hidden;whiteSpace=wrap;html=1;fillColor=#CC99FF;fontColor=#ffffff;strokeColor=#006EAF;" vertex="1" parent="vZxhdcHR_vcOyk7ja_Zl-80">
          <mxGeometry x="30" width="180" height="30" as="geometry">
            <mxRectangle width="180" height="30" as="alternateBounds" />
          </mxGeometry>
        </mxCell>
        <mxCell id="vZxhdcHR_vcOyk7ja_Zl-83" value="" style="shape=tableRow;horizontal=0;startSize=0;swimlaneHead=0;swimlaneBody=0;collapsible=0;dropTarget=0;points=[[0,0.5],[1,0.5]];portConstraint=eastwest;top=0;left=0;right=0;bottom=0;fillColor=#1ba1e2;fontColor=#ffffff;strokeColor=#006EAF;" vertex="1" parent="vZxhdcHR_vcOyk7ja_Zl-79">
          <mxGeometry y="60" width="210" height="30" as="geometry" />
        </mxCell>
        <mxCell id="vZxhdcHR_vcOyk7ja_Zl-84" value="FK" style="shape=partialRectangle;connectable=0;top=0;left=0;bottom=0;right=0;editable=1;overflow=hidden;whiteSpace=wrap;html=1;fillColor=#CC99FF;fontColor=#ffffff;strokeColor=#006EAF;" vertex="1" parent="vZxhdcHR_vcOyk7ja_Zl-83">
          <mxGeometry width="30" height="30" as="geometry">
            <mxRectangle width="30" height="30" as="alternateBounds" />
          </mxGeometry>
        </mxCell>
        <mxCell id="vZxhdcHR_vcOyk7ja_Zl-85" value="RandevuID INT" style="shape=partialRectangle;connectable=0;top=0;left=0;bottom=0;right=0;align=left;spacingLeft=6;overflow=hidden;whiteSpace=wrap;html=1;fillColor=#CC99FF;fontColor=#ffffff;strokeColor=#006EAF;" vertex="1" parent="vZxhdcHR_vcOyk7ja_Zl-83">
          <mxGeometry x="30" width="180" height="30" as="geometry">
            <mxRectangle width="180" height="30" as="alternateBounds" />
          </mxGeometry>
        </mxCell>
        <mxCell id="vZxhdcHR_vcOyk7ja_Zl-86" value="" style="shape=tableRow;horizontal=0;startSize=0;swimlaneHead=0;swimlaneBody=0;collapsible=0;dropTarget=0;points=[[0,0.5],[1,0.5]];portConstraint=eastwest;top=0;left=0;right=0;bottom=0;fillColor=#1ba1e2;fontColor=#ffffff;strokeColor=#006EAF;" vertex="1" parent="vZxhdcHR_vcOyk7ja_Zl-79">
          <mxGeometry y="90" width="210" height="30" as="geometry" />
        </mxCell>
        <mxCell id="vZxhdcHR_vcOyk7ja_Zl-87" value="" style="shape=partialRectangle;connectable=0;top=0;left=0;bottom=0;right=0;editable=1;overflow=hidden;whiteSpace=wrap;html=1;fillColor=#CC99FF;fontColor=#ffffff;strokeColor=#006EAF;" vertex="1" parent="vZxhdcHR_vcOyk7ja_Zl-86">
          <mxGeometry width="30" height="30" as="geometry">
            <mxRectangle width="30" height="30" as="alternateBounds" />
          </mxGeometry>
        </mxCell>
        <mxCell id="vZxhdcHR_vcOyk7ja_Zl-88" value="Baslangic_Zamani DATETIME" style="shape=partialRectangle;connectable=0;top=0;left=0;bottom=0;right=0;align=left;spacingLeft=6;overflow=hidden;whiteSpace=wrap;html=1;fillColor=#CC99FF;fontColor=#ffffff;strokeColor=#006EAF;" vertex="1" parent="vZxhdcHR_vcOyk7ja_Zl-86">
          <mxGeometry x="30" width="180" height="30" as="geometry">
            <mxRectangle width="180" height="30" as="alternateBounds" />
          </mxGeometry>
        </mxCell>
        <mxCell id="vZxhdcHR_vcOyk7ja_Zl-89" value="" style="shape=tableRow;horizontal=0;startSize=0;swimlaneHead=0;swimlaneBody=0;collapsible=0;dropTarget=0;points=[[0,0.5],[1,0.5]];portConstraint=eastwest;top=0;left=0;right=0;bottom=0;fillColor=#1ba1e2;fontColor=#ffffff;strokeColor=#006EAF;" vertex="1" parent="vZxhdcHR_vcOyk7ja_Zl-79">
          <mxGeometry y="120" width="210" height="30" as="geometry" />
        </mxCell>
        <mxCell id="vZxhdcHR_vcOyk7ja_Zl-90" value="" style="shape=partialRectangle;connectable=0;top=0;left=0;bottom=0;right=0;editable=1;overflow=hidden;whiteSpace=wrap;html=1;fillColor=#CC99FF;fontColor=#ffffff;strokeColor=#006EAF;" vertex="1" parent="vZxhdcHR_vcOyk7ja_Zl-89">
          <mxGeometry width="30" height="30" as="geometry">
            <mxRectangle width="30" height="30" as="alternateBounds" />
          </mxGeometry>
        </mxCell>
        <mxCell id="vZxhdcHR_vcOyk7ja_Zl-91" value="Bitis_Zamani DATETIME" style="shape=partialRectangle;connectable=0;top=0;left=0;bottom=0;right=0;align=left;spacingLeft=6;overflow=hidden;whiteSpace=wrap;html=1;fillColor=#CC99FF;fontColor=#ffffff;strokeColor=#006EAF;" vertex="1" parent="vZxhdcHR_vcOyk7ja_Zl-89">
          <mxGeometry x="30" width="180" height="30" as="geometry">
            <mxRectangle width="180" height="30" as="alternateBounds" />
          </mxGeometry>
        </mxCell>
        <mxCell id="vZxhdcHR_vcOyk7ja_Zl-92" value="" style="shape=tableRow;horizontal=0;startSize=0;swimlaneHead=0;swimlaneBody=0;fillColor=#1ba1e2;collapsible=0;dropTarget=0;points=[[0,0.5],[1,0.5]];portConstraint=eastwest;top=0;left=0;right=0;bottom=0;fontColor=#ffffff;strokeColor=#006EAF;" vertex="1" parent="vZxhdcHR_vcOyk7ja_Zl-79">
          <mxGeometry y="150" width="210" height="30" as="geometry" />
        </mxCell>
        <mxCell id="vZxhdcHR_vcOyk7ja_Zl-93" value="" style="shape=partialRectangle;connectable=0;fillColor=#CC99FF;top=0;left=0;bottom=0;right=0;editable=1;overflow=hidden;fontColor=#ffffff;strokeColor=#006EAF;" vertex="1" parent="vZxhdcHR_vcOyk7ja_Zl-92">
          <mxGeometry width="30" height="30" as="geometry">
            <mxRectangle width="30" height="30" as="alternateBounds" />
          </mxGeometry>
        </mxCell>
        <mxCell id="vZxhdcHR_vcOyk7ja_Zl-94" value="Gorusme_Durumu Varchar(50)" style="shape=partialRectangle;connectable=0;fillColor=#CC99FF;top=0;left=0;bottom=0;right=0;align=left;spacingLeft=6;overflow=hidden;fontColor=#ffffff;strokeColor=#006EAF;" vertex="1" parent="vZxhdcHR_vcOyk7ja_Zl-92">
          <mxGeometry x="30" width="180" height="30" as="geometry">
            <mxRectangle width="180" height="30" as="alternateBounds" />
          </mxGeometry>
        </mxCell>
        <mxCell id="vZxhdcHR_vcOyk7ja_Zl-95" value="" style="shape=tableRow;horizontal=0;startSize=0;swimlaneHead=0;swimlaneBody=0;fillColor=#1ba1e2;collapsible=0;dropTarget=0;points=[[0,0.5],[1,0.5]];portConstraint=eastwest;top=0;left=0;right=0;bottom=0;fontColor=#ffffff;strokeColor=#006EAF;" vertex="1" parent="vZxhdcHR_vcOyk7ja_Zl-79">
          <mxGeometry y="180" width="210" height="30" as="geometry" />
        </mxCell>
        <mxCell id="vZxhdcHR_vcOyk7ja_Zl-96" value="" style="shape=partialRectangle;connectable=0;fillColor=#CC99FF;top=0;left=0;bottom=0;right=0;editable=1;overflow=hidden;fontColor=#ffffff;strokeColor=#006EAF;" vertex="1" parent="vZxhdcHR_vcOyk7ja_Zl-95">
          <mxGeometry width="30" height="30" as="geometry">
            <mxRectangle width="30" height="30" as="alternateBounds" />
          </mxGeometry>
        </mxCell>
        <mxCell id="vZxhdcHR_vcOyk7ja_Zl-97" value="Video_Linki TEXT" style="shape=partialRectangle;connectable=0;fillColor=#CC99FF;top=0;left=0;bottom=0;right=0;align=left;spacingLeft=6;overflow=hidden;fontColor=#ffffff;strokeColor=#006EAF;" vertex="1" parent="vZxhdcHR_vcOyk7ja_Zl-95">
          <mxGeometry x="30" width="180" height="30" as="geometry">
            <mxRectangle width="180" height="30" as="alternateBounds" />
          </mxGeometry>
        </mxCell>
        <mxCell id="vZxhdcHR_vcOyk7ja_Zl-98" value="SeansNotlariKayitlari" style="shape=table;startSize=30;container=1;collapsible=1;childLayout=tableLayout;fixedRows=1;rowLines=0;fontStyle=1;align=center;resizeLast=1;html=1;fillColor=#7F00FF;fontColor=#ffffff;strokeColor=#001DBC;" vertex="1" parent="1">
          <mxGeometry x="1120" y="380" width="210" height="240" as="geometry">
            <mxRectangle x="140" y="120" width="100" height="30" as="alternateBounds" />
          </mxGeometry>
        </mxCell>
        <mxCell id="vZxhdcHR_vcOyk7ja_Zl-99" value="" style="shape=tableRow;horizontal=0;startSize=0;swimlaneHead=0;swimlaneBody=0;collapsible=0;dropTarget=0;points=[[0,0.5],[1,0.5]];portConstraint=eastwest;top=0;left=0;right=0;bottom=1;fillColor=#1ba1e2;fontColor=#ffffff;strokeColor=#006EAF;" vertex="1" parent="vZxhdcHR_vcOyk7ja_Zl-98">
          <mxGeometry y="30" width="210" height="30" as="geometry" />
        </mxCell>
        <mxCell id="vZxhdcHR_vcOyk7ja_Zl-100" value="PK" style="shape=partialRectangle;connectable=0;top=0;left=0;bottom=0;right=0;fontStyle=1;overflow=hidden;whiteSpace=wrap;html=1;fillColor=#CC99FF;fontColor=#ffffff;strokeColor=#006EAF;" vertex="1" parent="vZxhdcHR_vcOyk7ja_Zl-99">
          <mxGeometry width="30" height="30" as="geometry">
            <mxRectangle width="30" height="30" as="alternateBounds" />
          </mxGeometry>
        </mxCell>
        <mxCell id="vZxhdcHR_vcOyk7ja_Zl-101" value="SeansNotID INT" style="shape=partialRectangle;connectable=0;top=0;left=0;bottom=0;right=0;align=left;spacingLeft=6;fontStyle=5;overflow=hidden;whiteSpace=wrap;html=1;fillColor=#CC99FF;fontColor=#ffffff;strokeColor=#006EAF;" vertex="1" parent="vZxhdcHR_vcOyk7ja_Zl-99">
          <mxGeometry x="30" width="180" height="30" as="geometry">
            <mxRectangle width="180" height="30" as="alternateBounds" />
          </mxGeometry>
        </mxCell>
        <mxCell id="vZxhdcHR_vcOyk7ja_Zl-102" value="" style="shape=tableRow;horizontal=0;startSize=0;swimlaneHead=0;swimlaneBody=0;collapsible=0;dropTarget=0;points=[[0,0.5],[1,0.5]];portConstraint=eastwest;top=0;left=0;right=0;bottom=0;fillColor=#1ba1e2;fontColor=#ffffff;strokeColor=#006EAF;" vertex="1" parent="vZxhdcHR_vcOyk7ja_Zl-98">
          <mxGeometry y="60" width="210" height="30" as="geometry" />
        </mxCell>
        <mxCell id="vZxhdcHR_vcOyk7ja_Zl-103" value="FK" style="shape=partialRectangle;connectable=0;top=0;left=0;bottom=0;right=0;editable=1;overflow=hidden;whiteSpace=wrap;html=1;fillColor=#CC99FF;fontColor=#ffffff;strokeColor=#006EAF;" vertex="1" parent="vZxhdcHR_vcOyk7ja_Zl-102">
          <mxGeometry width="30" height="30" as="geometry">
            <mxRectangle width="30" height="30" as="alternateBounds" />
          </mxGeometry>
        </mxCell>
        <mxCell id="vZxhdcHR_vcOyk7ja_Zl-104" value="GorusmeID INT" style="shape=partialRectangle;connectable=0;top=0;left=0;bottom=0;right=0;align=left;spacingLeft=6;overflow=hidden;whiteSpace=wrap;html=1;fillColor=#CC99FF;fontColor=#ffffff;strokeColor=#006EAF;" vertex="1" parent="vZxhdcHR_vcOyk7ja_Zl-102">
          <mxGeometry x="30" width="180" height="30" as="geometry">
            <mxRectangle width="180" height="30" as="alternateBounds" />
          </mxGeometry>
        </mxCell>
        <mxCell id="vZxhdcHR_vcOyk7ja_Zl-105" value="" style="shape=tableRow;horizontal=0;startSize=0;swimlaneHead=0;swimlaneBody=0;collapsible=0;dropTarget=0;points=[[0,0.5],[1,0.5]];portConstraint=eastwest;top=0;left=0;right=0;bottom=0;fillColor=#1ba1e2;fontColor=#ffffff;strokeColor=#006EAF;" vertex="1" parent="vZxhdcHR_vcOyk7ja_Zl-98">
          <mxGeometry y="90" width="210" height="30" as="geometry" />
        </mxCell>
        <mxCell id="vZxhdcHR_vcOyk7ja_Zl-106" value="FK" style="shape=partialRectangle;connectable=0;top=0;left=0;bottom=0;right=0;editable=1;overflow=hidden;whiteSpace=wrap;html=1;fillColor=#CC99FF;fontColor=#ffffff;strokeColor=#006EAF;" vertex="1" parent="vZxhdcHR_vcOyk7ja_Zl-105">
          <mxGeometry width="30" height="30" as="geometry">
            <mxRectangle width="30" height="30" as="alternateBounds" />
          </mxGeometry>
        </mxCell>
        <mxCell id="vZxhdcHR_vcOyk7ja_Zl-107" value="PsikologID INT" style="shape=partialRectangle;connectable=0;top=0;left=0;bottom=0;right=0;align=left;spacingLeft=6;overflow=hidden;whiteSpace=wrap;html=1;fillColor=#CC99FF;fontColor=#ffffff;strokeColor=#006EAF;" vertex="1" parent="vZxhdcHR_vcOyk7ja_Zl-105">
          <mxGeometry x="30" width="180" height="30" as="geometry">
            <mxRectangle width="180" height="30" as="alternateBounds" />
          </mxGeometry>
        </mxCell>
        <mxCell id="vZxhdcHR_vcOyk7ja_Zl-108" value="" style="shape=tableRow;horizontal=0;startSize=0;swimlaneHead=0;swimlaneBody=0;collapsible=0;dropTarget=0;points=[[0,0.5],[1,0.5]];portConstraint=eastwest;top=0;left=0;right=0;bottom=0;fillColor=#1ba1e2;fontColor=#ffffff;strokeColor=#006EAF;" vertex="1" parent="vZxhdcHR_vcOyk7ja_Zl-98">
          <mxGeometry y="120" width="210" height="30" as="geometry" />
        </mxCell>
        <mxCell id="vZxhdcHR_vcOyk7ja_Zl-109" value="FK" style="shape=partialRectangle;connectable=0;top=0;left=0;bottom=0;right=0;editable=1;overflow=hidden;whiteSpace=wrap;html=1;fillColor=#CC99FF;fontColor=#ffffff;strokeColor=#006EAF;" vertex="1" parent="vZxhdcHR_vcOyk7ja_Zl-108">
          <mxGeometry width="30" height="30" as="geometry">
            <mxRectangle width="30" height="30" as="alternateBounds" />
          </mxGeometry>
        </mxCell>
        <mxCell id="vZxhdcHR_vcOyk7ja_Zl-110" value="OgrenciID INT" style="shape=partialRectangle;connectable=0;top=0;left=0;bottom=0;right=0;align=left;spacingLeft=6;overflow=hidden;whiteSpace=wrap;html=1;fillColor=#CC99FF;fontColor=#ffffff;strokeColor=#006EAF;" vertex="1" parent="vZxhdcHR_vcOyk7ja_Zl-108">
          <mxGeometry x="30" width="180" height="30" as="geometry">
            <mxRectangle width="180" height="30" as="alternateBounds" />
          </mxGeometry>
        </mxCell>
        <mxCell id="vZxhdcHR_vcOyk7ja_Zl-111" value="" style="shape=tableRow;horizontal=0;startSize=0;swimlaneHead=0;swimlaneBody=0;fillColor=#1ba1e2;collapsible=0;dropTarget=0;points=[[0,0.5],[1,0.5]];portConstraint=eastwest;top=0;left=0;right=0;bottom=0;fontColor=#ffffff;strokeColor=#006EAF;" vertex="1" parent="vZxhdcHR_vcOyk7ja_Zl-98">
          <mxGeometry y="150" width="210" height="30" as="geometry" />
        </mxCell>
        <mxCell id="vZxhdcHR_vcOyk7ja_Zl-112" value="" style="shape=partialRectangle;connectable=0;fillColor=#CC99FF;top=0;left=0;bottom=0;right=0;editable=1;overflow=hidden;fontColor=#ffffff;strokeColor=#006EAF;" vertex="1" parent="vZxhdcHR_vcOyk7ja_Zl-111">
          <mxGeometry width="30" height="30" as="geometry">
            <mxRectangle width="30" height="30" as="alternateBounds" />
          </mxGeometry>
        </mxCell>
        <mxCell id="vZxhdcHR_vcOyk7ja_Zl-113" value="Not_Basligi Varchar(100)" style="shape=partialRectangle;connectable=0;fillColor=#CC99FF;top=0;left=0;bottom=0;right=0;align=left;spacingLeft=6;overflow=hidden;fontColor=#ffffff;strokeColor=#006EAF;" vertex="1" parent="vZxhdcHR_vcOyk7ja_Zl-111">
          <mxGeometry x="30" width="180" height="30" as="geometry">
            <mxRectangle width="180" height="30" as="alternateBounds" />
          </mxGeometry>
        </mxCell>
        <mxCell id="vZxhdcHR_vcOyk7ja_Zl-114" value="" style="shape=tableRow;horizontal=0;startSize=0;swimlaneHead=0;swimlaneBody=0;fillColor=#1ba1e2;collapsible=0;dropTarget=0;points=[[0,0.5],[1,0.5]];portConstraint=eastwest;top=0;left=0;right=0;bottom=0;fontColor=#ffffff;strokeColor=#006EAF;" vertex="1" parent="vZxhdcHR_vcOyk7ja_Zl-98">
          <mxGeometry y="180" width="210" height="30" as="geometry" />
        </mxCell>
        <mxCell id="vZxhdcHR_vcOyk7ja_Zl-115" value="" style="shape=partialRectangle;connectable=0;fillColor=#CC99FF;top=0;left=0;bottom=0;right=0;editable=1;overflow=hidden;fontColor=#ffffff;strokeColor=#006EAF;" vertex="1" parent="vZxhdcHR_vcOyk7ja_Zl-114">
          <mxGeometry width="30" height="30" as="geometry">
            <mxRectangle width="30" height="30" as="alternateBounds" />
          </mxGeometry>
        </mxCell>
        <mxCell id="vZxhdcHR_vcOyk7ja_Zl-116" value="Icerik TEXT" style="shape=partialRectangle;connectable=0;fillColor=#CC99FF;top=0;left=0;bottom=0;right=0;align=left;spacingLeft=6;overflow=hidden;fontColor=#ffffff;strokeColor=#006EAF;" vertex="1" parent="vZxhdcHR_vcOyk7ja_Zl-114">
          <mxGeometry x="30" width="180" height="30" as="geometry">
            <mxRectangle width="180" height="30" as="alternateBounds" />
          </mxGeometry>
        </mxCell>
        <mxCell id="vZxhdcHR_vcOyk7ja_Zl-117" value="" style="shape=tableRow;horizontal=0;startSize=0;swimlaneHead=0;swimlaneBody=0;fillColor=#1ba1e2;collapsible=0;dropTarget=0;points=[[0,0.5],[1,0.5]];portConstraint=eastwest;top=0;left=0;right=0;bottom=0;fontColor=#ffffff;strokeColor=#006EAF;" vertex="1" parent="vZxhdcHR_vcOyk7ja_Zl-98">
          <mxGeometry y="210" width="210" height="30" as="geometry" />
        </mxCell>
        <mxCell id="vZxhdcHR_vcOyk7ja_Zl-118" value="" style="shape=partialRectangle;connectable=0;fillColor=#CC99FF;top=0;left=0;bottom=0;right=0;editable=1;overflow=hidden;fontColor=#ffffff;strokeColor=#006EAF;" vertex="1" parent="vZxhdcHR_vcOyk7ja_Zl-117">
          <mxGeometry width="30" height="30" as="geometry">
            <mxRectangle width="30" height="30" as="alternateBounds" />
          </mxGeometry>
        </mxCell>
        <mxCell id="vZxhdcHR_vcOyk7ja_Zl-119" value="Olusturulma_Tarihi DATETIME" style="shape=partialRectangle;connectable=0;fillColor=#CC99FF;top=0;left=0;bottom=0;right=0;align=left;spacingLeft=6;overflow=hidden;fontColor=#ffffff;strokeColor=#006EAF;" vertex="1" parent="vZxhdcHR_vcOyk7ja_Zl-117">
          <mxGeometry x="30" width="180" height="30" as="geometry">
            <mxRectangle width="180" height="30" as="alternateBounds" />
          </mxGeometry>
        </mxCell>
        <mxCell id="vZxhdcHR_vcOyk7ja_Zl-120" value="IcerikKutuphanesiKayitlari" style="shape=table;startSize=30;container=1;collapsible=1;childLayout=tableLayout;fixedRows=1;rowLines=0;fontStyle=1;align=center;resizeLast=1;html=1;fillColor=#7F00FF;fontColor=#ffffff;strokeColor=#001DBC;" vertex="1" parent="1">
          <mxGeometry x="1120" y="40" width="210" height="300" as="geometry">
            <mxRectangle x="140" y="120" width="100" height="30" as="alternateBounds" />
          </mxGeometry>
        </mxCell>
        <mxCell id="vZxhdcHR_vcOyk7ja_Zl-121" value="" style="shape=tableRow;horizontal=0;startSize=0;swimlaneHead=0;swimlaneBody=0;collapsible=0;dropTarget=0;points=[[0,0.5],[1,0.5]];portConstraint=eastwest;top=0;left=0;right=0;bottom=1;fillColor=#1ba1e2;fontColor=#ffffff;strokeColor=#006EAF;" vertex="1" parent="vZxhdcHR_vcOyk7ja_Zl-120">
          <mxGeometry y="30" width="210" height="30" as="geometry" />
        </mxCell>
        <mxCell id="vZxhdcHR_vcOyk7ja_Zl-122" value="PK" style="shape=partialRectangle;connectable=0;top=0;left=0;bottom=0;right=0;fontStyle=1;overflow=hidden;whiteSpace=wrap;html=1;fillColor=#CC99FF;fontColor=#ffffff;strokeColor=#006EAF;" vertex="1" parent="vZxhdcHR_vcOyk7ja_Zl-121">
          <mxGeometry width="30" height="30" as="geometry">
            <mxRectangle width="30" height="30" as="alternateBounds" />
          </mxGeometry>
        </mxCell>
        <mxCell id="vZxhdcHR_vcOyk7ja_Zl-123" value="IcerikID INT" style="shape=partialRectangle;connectable=0;top=0;left=0;bottom=0;right=0;align=left;spacingLeft=6;fontStyle=5;overflow=hidden;whiteSpace=wrap;html=1;fillColor=#CC99FF;fontColor=#ffffff;strokeColor=#006EAF;" vertex="1" parent="vZxhdcHR_vcOyk7ja_Zl-121">
          <mxGeometry x="30" width="180" height="30" as="geometry">
            <mxRectangle width="180" height="30" as="alternateBounds" />
          </mxGeometry>
        </mxCell>
        <mxCell id="vZxhdcHR_vcOyk7ja_Zl-124" value="" style="shape=tableRow;horizontal=0;startSize=0;swimlaneHead=0;swimlaneBody=0;collapsible=0;dropTarget=0;points=[[0,0.5],[1,0.5]];portConstraint=eastwest;top=0;left=0;right=0;bottom=0;fillColor=#1ba1e2;fontColor=#ffffff;strokeColor=#006EAF;" vertex="1" parent="vZxhdcHR_vcOyk7ja_Zl-120">
          <mxGeometry y="60" width="210" height="30" as="geometry" />
        </mxCell>
        <mxCell id="vZxhdcHR_vcOyk7ja_Zl-125" value="FK" style="shape=partialRectangle;connectable=0;top=0;left=0;bottom=0;right=0;editable=1;overflow=hidden;whiteSpace=wrap;html=1;fillColor=#CC99FF;fontColor=#ffffff;strokeColor=#006EAF;" vertex="1" parent="vZxhdcHR_vcOyk7ja_Zl-124">
          <mxGeometry width="30" height="30" as="geometry">
            <mxRectangle width="30" height="30" as="alternateBounds" />
          </mxGeometry>
        </mxCell>
        <mxCell id="vZxhdcHR_vcOyk7ja_Zl-126" value="PsikologID INT" style="shape=partialRectangle;connectable=0;top=0;left=0;bottom=0;right=0;align=left;spacingLeft=6;overflow=hidden;whiteSpace=wrap;html=1;fillColor=#CC99FF;fontColor=#ffffff;strokeColor=#006EAF;" vertex="1" parent="vZxhdcHR_vcOyk7ja_Zl-124">
          <mxGeometry x="30" width="180" height="30" as="geometry">
            <mxRectangle width="180" height="30" as="alternateBounds" />
          </mxGeometry>
        </mxCell>
        <mxCell id="vZxhdcHR_vcOyk7ja_Zl-127" value="" style="shape=tableRow;horizontal=0;startSize=0;swimlaneHead=0;swimlaneBody=0;collapsible=0;dropTarget=0;points=[[0,0.5],[1,0.5]];portConstraint=eastwest;top=0;left=0;right=0;bottom=0;fillColor=#1ba1e2;fontColor=#ffffff;strokeColor=#006EAF;" vertex="1" parent="vZxhdcHR_vcOyk7ja_Zl-120">
          <mxGeometry y="90" width="210" height="30" as="geometry" />
        </mxCell>
        <mxCell id="vZxhdcHR_vcOyk7ja_Zl-128" value="" style="shape=partialRectangle;connectable=0;top=0;left=0;bottom=0;right=0;editable=1;overflow=hidden;whiteSpace=wrap;html=1;fillColor=#CC99FF;fontColor=#ffffff;strokeColor=#006EAF;" vertex="1" parent="vZxhdcHR_vcOyk7ja_Zl-127">
          <mxGeometry width="30" height="30" as="geometry">
            <mxRectangle width="30" height="30" as="alternateBounds" />
          </mxGeometry>
        </mxCell>
        <mxCell id="vZxhdcHR_vcOyk7ja_Zl-129" value="Baslik Varchar(150)" style="shape=partialRectangle;connectable=0;top=0;left=0;bottom=0;right=0;align=left;spacingLeft=6;overflow=hidden;whiteSpace=wrap;html=1;fillColor=#CC99FF;fontColor=#ffffff;strokeColor=#006EAF;" vertex="1" parent="vZxhdcHR_vcOyk7ja_Zl-127">
          <mxGeometry x="30" width="180" height="30" as="geometry">
            <mxRectangle width="180" height="30" as="alternateBounds" />
          </mxGeometry>
        </mxCell>
        <mxCell id="vZxhdcHR_vcOyk7ja_Zl-130" value="" style="shape=tableRow;horizontal=0;startSize=0;swimlaneHead=0;swimlaneBody=0;fillColor=#1ba1e2;collapsible=0;dropTarget=0;points=[[0,0.5],[1,0.5]];portConstraint=eastwest;top=0;left=0;right=0;bottom=0;fontColor=#ffffff;strokeColor=#006EAF;" vertex="1" parent="vZxhdcHR_vcOyk7ja_Zl-120">
          <mxGeometry y="120" width="210" height="30" as="geometry" />
        </mxCell>
        <mxCell id="vZxhdcHR_vcOyk7ja_Zl-131" value="" style="shape=partialRectangle;connectable=0;fillColor=#CC99FF;top=0;left=0;bottom=0;right=0;editable=1;overflow=hidden;fontColor=#ffffff;strokeColor=#006EAF;" vertex="1" parent="vZxhdcHR_vcOyk7ja_Zl-130">
          <mxGeometry width="30" height="30" as="geometry">
            <mxRectangle width="30" height="30" as="alternateBounds" />
          </mxGeometry>
        </mxCell>
        <mxCell id="vZxhdcHR_vcOyk7ja_Zl-132" value="Icerik_Tipi Varchar(20)" style="shape=partialRectangle;connectable=0;fillColor=#CC99FF;top=0;left=0;bottom=0;right=0;align=left;spacingLeft=6;overflow=hidden;fontColor=#ffffff;strokeColor=#006EAF;" vertex="1" parent="vZxhdcHR_vcOyk7ja_Zl-130">
          <mxGeometry x="30" width="180" height="30" as="geometry">
            <mxRectangle width="180" height="30" as="alternateBounds" />
          </mxGeometry>
        </mxCell>
        <mxCell id="vZxhdcHR_vcOyk7ja_Zl-133" value="" style="shape=tableRow;horizontal=0;startSize=0;swimlaneHead=0;swimlaneBody=0;fillColor=#1ba1e2;collapsible=0;dropTarget=0;points=[[0,0.5],[1,0.5]];portConstraint=eastwest;top=0;left=0;right=0;bottom=0;fontColor=#ffffff;strokeColor=#006EAF;" vertex="1" parent="vZxhdcHR_vcOyk7ja_Zl-120">
          <mxGeometry y="150" width="210" height="30" as="geometry" />
        </mxCell>
        <mxCell id="vZxhdcHR_vcOyk7ja_Zl-134" value="" style="shape=partialRectangle;connectable=0;fillColor=#CC99FF;top=0;left=0;bottom=0;right=0;editable=1;overflow=hidden;fontColor=#ffffff;strokeColor=#006EAF;" vertex="1" parent="vZxhdcHR_vcOyk7ja_Zl-133">
          <mxGeometry width="30" height="30" as="geometry">
            <mxRectangle width="30" height="30" as="alternateBounds" />
          </mxGeometry>
        </mxCell>
        <mxCell id="vZxhdcHR_vcOyk7ja_Zl-135" value="Aciklama TEXT" style="shape=partialRectangle;connectable=0;fillColor=#CC99FF;top=0;left=0;bottom=0;right=0;align=left;spacingLeft=6;overflow=hidden;fontColor=#ffffff;strokeColor=#006EAF;" vertex="1" parent="vZxhdcHR_vcOyk7ja_Zl-133">
          <mxGeometry x="30" width="180" height="30" as="geometry">
            <mxRectangle width="180" height="30" as="alternateBounds" />
          </mxGeometry>
        </mxCell>
        <mxCell id="vZxhdcHR_vcOyk7ja_Zl-136" value="" style="shape=tableRow;horizontal=0;startSize=0;swimlaneHead=0;swimlaneBody=0;fillColor=#1ba1e2;collapsible=0;dropTarget=0;points=[[0,0.5],[1,0.5]];portConstraint=eastwest;top=0;left=0;right=0;bottom=0;fontColor=#ffffff;strokeColor=#006EAF;" vertex="1" parent="vZxhdcHR_vcOyk7ja_Zl-120">
          <mxGeometry y="180" width="210" height="30" as="geometry" />
        </mxCell>
        <mxCell id="vZxhdcHR_vcOyk7ja_Zl-137" value="" style="shape=partialRectangle;connectable=0;fillColor=#CC99FF;top=0;left=0;bottom=0;right=0;editable=1;overflow=hidden;fontColor=#ffffff;strokeColor=#006EAF;" vertex="1" parent="vZxhdcHR_vcOyk7ja_Zl-136">
          <mxGeometry width="30" height="30" as="geometry">
            <mxRectangle width="30" height="30" as="alternateBounds" />
          </mxGeometry>
        </mxCell>
        <mxCell id="vZxhdcHR_vcOyk7ja_Zl-138" value="Dosya_Url TEXT" style="shape=partialRectangle;connectable=0;fillColor=#CC99FF;top=0;left=0;bottom=0;right=0;align=left;spacingLeft=6;overflow=hidden;fontColor=#ffffff;strokeColor=#006EAF;" vertex="1" parent="vZxhdcHR_vcOyk7ja_Zl-136">
          <mxGeometry x="30" width="180" height="30" as="geometry">
            <mxRectangle width="180" height="30" as="alternateBounds" />
          </mxGeometry>
        </mxCell>
        <mxCell id="vZxhdcHR_vcOyk7ja_Zl-139" value="" style="shape=tableRow;horizontal=0;startSize=0;swimlaneHead=0;swimlaneBody=0;fillColor=#1ba1e2;collapsible=0;dropTarget=0;points=[[0,0.5],[1,0.5]];portConstraint=eastwest;top=0;left=0;right=0;bottom=0;fontColor=#ffffff;strokeColor=#006EAF;" vertex="1" parent="vZxhdcHR_vcOyk7ja_Zl-120">
          <mxGeometry y="210" width="210" height="30" as="geometry" />
        </mxCell>
        <mxCell id="vZxhdcHR_vcOyk7ja_Zl-140" value="" style="shape=partialRectangle;connectable=0;fillColor=#CC99FF;top=0;left=0;bottom=0;right=0;editable=1;overflow=hidden;fontColor=#ffffff;strokeColor=#006EAF;" vertex="1" parent="vZxhdcHR_vcOyk7ja_Zl-139">
          <mxGeometry width="30" height="30" as="geometry">
            <mxRectangle width="30" height="30" as="alternateBounds" />
          </mxGeometry>
        </mxCell>
        <mxCell id="vZxhdcHR_vcOyk7ja_Zl-141" value="Hedef_Kitle Varchar(100)" style="shape=partialRectangle;connectable=0;fillColor=#CC99FF;top=0;left=0;bottom=0;right=0;align=left;spacingLeft=6;overflow=hidden;fontColor=#ffffff;strokeColor=#006EAF;" vertex="1" parent="vZxhdcHR_vcOyk7ja_Zl-139">
          <mxGeometry x="30" width="180" height="30" as="geometry">
            <mxRectangle width="180" height="30" as="alternateBounds" />
          </mxGeometry>
        </mxCell>
        <mxCell id="vZxhdcHR_vcOyk7ja_Zl-142" value="" style="shape=tableRow;horizontal=0;startSize=0;swimlaneHead=0;swimlaneBody=0;fillColor=#1ba1e2;collapsible=0;dropTarget=0;points=[[0,0.5],[1,0.5]];portConstraint=eastwest;top=0;left=0;right=0;bottom=0;fontColor=#ffffff;strokeColor=#006EAF;" vertex="1" parent="vZxhdcHR_vcOyk7ja_Zl-120">
          <mxGeometry y="240" width="210" height="30" as="geometry" />
        </mxCell>
        <mxCell id="vZxhdcHR_vcOyk7ja_Zl-143" value="" style="shape=partialRectangle;connectable=0;fillColor=#CC99FF;top=0;left=0;bottom=0;right=0;editable=1;overflow=hidden;fontColor=#ffffff;strokeColor=#006EAF;" vertex="1" parent="vZxhdcHR_vcOyk7ja_Zl-142">
          <mxGeometry width="30" height="30" as="geometry">
            <mxRectangle width="30" height="30" as="alternateBounds" />
          </mxGeometry>
        </mxCell>
        <mxCell id="vZxhdcHR_vcOyk7ja_Zl-144" value="Yayin_Tarihi DATETIME" style="shape=partialRectangle;connectable=0;fillColor=#CC99FF;top=0;left=0;bottom=0;right=0;align=left;spacingLeft=6;overflow=hidden;fontColor=#ffffff;strokeColor=#006EAF;" vertex="1" parent="vZxhdcHR_vcOyk7ja_Zl-142">
          <mxGeometry x="30" width="180" height="30" as="geometry">
            <mxRectangle width="180" height="30" as="alternateBounds" />
          </mxGeometry>
        </mxCell>
        <mxCell id="vZxhdcHR_vcOyk7ja_Zl-145" value="" style="shape=tableRow;horizontal=0;startSize=0;swimlaneHead=0;swimlaneBody=0;fillColor=#1ba1e2;collapsible=0;dropTarget=0;points=[[0,0.5],[1,0.5]];portConstraint=eastwest;top=0;left=0;right=0;bottom=0;fontColor=#ffffff;strokeColor=#006EAF;" vertex="1" parent="vZxhdcHR_vcOyk7ja_Zl-120">
          <mxGeometry y="270" width="210" height="30" as="geometry" />
        </mxCell>
        <mxCell id="vZxhdcHR_vcOyk7ja_Zl-146" value="" style="shape=partialRectangle;connectable=0;fillColor=#CC99FF;top=0;left=0;bottom=0;right=0;editable=1;overflow=hidden;fontColor=#ffffff;strokeColor=#006EAF;" vertex="1" parent="vZxhdcHR_vcOyk7ja_Zl-145">
          <mxGeometry width="30" height="30" as="geometry">
            <mxRectangle width="30" height="30" as="alternateBounds" />
          </mxGeometry>
        </mxCell>
        <mxCell id="vZxhdcHR_vcOyk7ja_Zl-147" value="Goruntulenme_Sayisi INT" style="shape=partialRectangle;connectable=0;fillColor=#CC99FF;top=0;left=0;bottom=0;right=0;align=left;spacingLeft=6;overflow=hidden;fontColor=#ffffff;strokeColor=#006EAF;" vertex="1" parent="vZxhdcHR_vcOyk7ja_Zl-145">
          <mxGeometry x="30" width="180" height="30" as="geometry">
            <mxRectangle width="180" height="30" as="alternateBounds" />
          </mxGeometry>
        </mxCell>
        <mxCell id="vZxhdcHR_vcOyk7ja_Zl-148" value="AcilDurumKayitlari" style="shape=table;startSize=30;container=1;collapsible=1;childLayout=tableLayout;fixedRows=1;rowLines=0;fontStyle=1;align=center;resizeLast=1;html=1;fillColor=#7F00FF;fontColor=#ffffff;strokeColor=#001DBC;" vertex="1" parent="1">
          <mxGeometry x="340" y="350" width="210" height="300" as="geometry">
            <mxRectangle x="140" y="120" width="100" height="30" as="alternateBounds" />
          </mxGeometry>
        </mxCell>
        <mxCell id="vZxhdcHR_vcOyk7ja_Zl-149" value="" style="shape=tableRow;horizontal=0;startSize=0;swimlaneHead=0;swimlaneBody=0;collapsible=0;dropTarget=0;points=[[0,0.5],[1,0.5]];portConstraint=eastwest;top=0;left=0;right=0;bottom=1;fillColor=#1ba1e2;fontColor=#ffffff;strokeColor=#006EAF;" vertex="1" parent="vZxhdcHR_vcOyk7ja_Zl-148">
          <mxGeometry y="30" width="210" height="30" as="geometry" />
        </mxCell>
        <mxCell id="vZxhdcHR_vcOyk7ja_Zl-150" value="PK" style="shape=partialRectangle;connectable=0;top=0;left=0;bottom=0;right=0;fontStyle=1;overflow=hidden;whiteSpace=wrap;html=1;fillColor=#CC99FF;fontColor=#ffffff;strokeColor=#006EAF;" vertex="1" parent="vZxhdcHR_vcOyk7ja_Zl-149">
          <mxGeometry width="30" height="30" as="geometry">
            <mxRectangle width="30" height="30" as="alternateBounds" />
          </mxGeometry>
        </mxCell>
        <mxCell id="vZxhdcHR_vcOyk7ja_Zl-151" value="AcilDurumID INT" style="shape=partialRectangle;connectable=0;top=0;left=0;bottom=0;right=0;align=left;spacingLeft=6;fontStyle=5;overflow=hidden;whiteSpace=wrap;html=1;fillColor=#CC99FF;fontColor=#ffffff;strokeColor=#006EAF;" vertex="1" parent="vZxhdcHR_vcOyk7ja_Zl-149">
          <mxGeometry x="30" width="180" height="30" as="geometry">
            <mxRectangle width="180" height="30" as="alternateBounds" />
          </mxGeometry>
        </mxCell>
        <mxCell id="vZxhdcHR_vcOyk7ja_Zl-152" value="" style="shape=tableRow;horizontal=0;startSize=0;swimlaneHead=0;swimlaneBody=0;collapsible=0;dropTarget=0;points=[[0,0.5],[1,0.5]];portConstraint=eastwest;top=0;left=0;right=0;bottom=0;fillColor=#1ba1e2;fontColor=#ffffff;strokeColor=#006EAF;" vertex="1" parent="vZxhdcHR_vcOyk7ja_Zl-148">
          <mxGeometry y="60" width="210" height="30" as="geometry" />
        </mxCell>
        <mxCell id="vZxhdcHR_vcOyk7ja_Zl-153" value="FK" style="shape=partialRectangle;connectable=0;top=0;left=0;bottom=0;right=0;editable=1;overflow=hidden;whiteSpace=wrap;html=1;fillColor=#CC99FF;fontColor=#ffffff;strokeColor=#006EAF;" vertex="1" parent="vZxhdcHR_vcOyk7ja_Zl-152">
          <mxGeometry width="30" height="30" as="geometry">
            <mxRectangle width="30" height="30" as="alternateBounds" />
          </mxGeometry>
        </mxCell>
        <mxCell id="vZxhdcHR_vcOyk7ja_Zl-154" value="OgrenciID INT" style="shape=partialRectangle;connectable=0;top=0;left=0;bottom=0;right=0;align=left;spacingLeft=6;overflow=hidden;whiteSpace=wrap;html=1;fillColor=#CC99FF;fontColor=#ffffff;strokeColor=#006EAF;" vertex="1" parent="vZxhdcHR_vcOyk7ja_Zl-152">
          <mxGeometry x="30" width="180" height="30" as="geometry">
            <mxRectangle width="180" height="30" as="alternateBounds" />
          </mxGeometry>
        </mxCell>
        <mxCell id="vZxhdcHR_vcOyk7ja_Zl-155" value="" style="shape=tableRow;horizontal=0;startSize=0;swimlaneHead=0;swimlaneBody=0;collapsible=0;dropTarget=0;points=[[0,0.5],[1,0.5]];portConstraint=eastwest;top=0;left=0;right=0;bottom=0;fillColor=#1ba1e2;fontColor=#ffffff;strokeColor=#006EAF;" vertex="1" parent="vZxhdcHR_vcOyk7ja_Zl-148">
          <mxGeometry y="90" width="210" height="30" as="geometry" />
        </mxCell>
        <mxCell id="vZxhdcHR_vcOyk7ja_Zl-156" value="FK" style="shape=partialRectangle;connectable=0;top=0;left=0;bottom=0;right=0;editable=1;overflow=hidden;whiteSpace=wrap;html=1;fillColor=#CC99FF;fontColor=#ffffff;strokeColor=#006EAF;" vertex="1" parent="vZxhdcHR_vcOyk7ja_Zl-155">
          <mxGeometry width="30" height="30" as="geometry">
            <mxRectangle width="30" height="30" as="alternateBounds" />
          </mxGeometry>
        </mxCell>
        <mxCell id="vZxhdcHR_vcOyk7ja_Zl-157" value="PsikologID INT" style="shape=partialRectangle;connectable=0;top=0;left=0;bottom=0;right=0;align=left;spacingLeft=6;overflow=hidden;whiteSpace=wrap;html=1;fillColor=#CC99FF;fontColor=#ffffff;strokeColor=#006EAF;" vertex="1" parent="vZxhdcHR_vcOyk7ja_Zl-155">
          <mxGeometry x="30" width="180" height="30" as="geometry">
            <mxRectangle width="180" height="30" as="alternateBounds" />
          </mxGeometry>
        </mxCell>
        <mxCell id="vZxhdcHR_vcOyk7ja_Zl-158" value="" style="shape=tableRow;horizontal=0;startSize=0;swimlaneHead=0;swimlaneBody=0;collapsible=0;dropTarget=0;points=[[0,0.5],[1,0.5]];portConstraint=eastwest;top=0;left=0;right=0;bottom=0;fillColor=#1ba1e2;fontColor=#ffffff;strokeColor=#006EAF;" vertex="1" parent="vZxhdcHR_vcOyk7ja_Zl-148">
          <mxGeometry y="120" width="210" height="30" as="geometry" />
        </mxCell>
        <mxCell id="vZxhdcHR_vcOyk7ja_Zl-159" value="FK" style="shape=partialRectangle;connectable=0;top=0;left=0;bottom=0;right=0;editable=1;overflow=hidden;whiteSpace=wrap;html=1;fillColor=#CC99FF;fontColor=#ffffff;strokeColor=#006EAF;" vertex="1" parent="vZxhdcHR_vcOyk7ja_Zl-158">
          <mxGeometry width="30" height="30" as="geometry">
            <mxRectangle width="30" height="30" as="alternateBounds" />
          </mxGeometry>
        </mxCell>
        <mxCell id="vZxhdcHR_vcOyk7ja_Zl-160" value="GorusmeID INT" style="shape=partialRectangle;connectable=0;top=0;left=0;bottom=0;right=0;align=left;spacingLeft=6;overflow=hidden;whiteSpace=wrap;html=1;fillColor=#CC99FF;fontColor=#ffffff;strokeColor=#006EAF;" vertex="1" parent="vZxhdcHR_vcOyk7ja_Zl-158">
          <mxGeometry x="30" width="180" height="30" as="geometry">
            <mxRectangle width="180" height="30" as="alternateBounds" />
          </mxGeometry>
        </mxCell>
        <mxCell id="vZxhdcHR_vcOyk7ja_Zl-161" value="" style="shape=tableRow;horizontal=0;startSize=0;swimlaneHead=0;swimlaneBody=0;fillColor=#1ba1e2;collapsible=0;dropTarget=0;points=[[0,0.5],[1,0.5]];portConstraint=eastwest;top=0;left=0;right=0;bottom=0;fontColor=#ffffff;strokeColor=#006EAF;" vertex="1" parent="vZxhdcHR_vcOyk7ja_Zl-148">
          <mxGeometry y="150" width="210" height="30" as="geometry" />
        </mxCell>
        <mxCell id="vZxhdcHR_vcOyk7ja_Zl-162" value="" style="shape=partialRectangle;connectable=0;fillColor=#CC99FF;top=0;left=0;bottom=0;right=0;editable=1;overflow=hidden;fontColor=#ffffff;strokeColor=#006EAF;" vertex="1" parent="vZxhdcHR_vcOyk7ja_Zl-161">
          <mxGeometry width="30" height="30" as="geometry">
            <mxRectangle width="30" height="30" as="alternateBounds" />
          </mxGeometry>
        </mxCell>
        <mxCell id="vZxhdcHR_vcOyk7ja_Zl-163" value="Acil_Durum_Turu Varchar(50)" style="shape=partialRectangle;connectable=0;fillColor=#CC99FF;top=0;left=0;bottom=0;right=0;align=left;spacingLeft=6;overflow=hidden;fontColor=#ffffff;strokeColor=#006EAF;" vertex="1" parent="vZxhdcHR_vcOyk7ja_Zl-161">
          <mxGeometry x="30" width="180" height="30" as="geometry">
            <mxRectangle width="180" height="30" as="alternateBounds" />
          </mxGeometry>
        </mxCell>
        <mxCell id="vZxhdcHR_vcOyk7ja_Zl-164" value="" style="shape=tableRow;horizontal=0;startSize=0;swimlaneHead=0;swimlaneBody=0;fillColor=#1ba1e2;collapsible=0;dropTarget=0;points=[[0,0.5],[1,0.5]];portConstraint=eastwest;top=0;left=0;right=0;bottom=0;fontColor=#ffffff;strokeColor=#006EAF;" vertex="1" parent="vZxhdcHR_vcOyk7ja_Zl-148">
          <mxGeometry y="180" width="210" height="30" as="geometry" />
        </mxCell>
        <mxCell id="vZxhdcHR_vcOyk7ja_Zl-165" value="" style="shape=partialRectangle;connectable=0;fillColor=#CC99FF;top=0;left=0;bottom=0;right=0;editable=1;overflow=hidden;fontColor=#ffffff;strokeColor=#006EAF;" vertex="1" parent="vZxhdcHR_vcOyk7ja_Zl-164">
          <mxGeometry width="30" height="30" as="geometry">
            <mxRectangle width="30" height="30" as="alternateBounds" />
          </mxGeometry>
        </mxCell>
        <mxCell id="vZxhdcHR_vcOyk7ja_Zl-166" value="Aciklama TEXT" style="shape=partialRectangle;connectable=0;fillColor=#CC99FF;top=0;left=0;bottom=0;right=0;align=left;spacingLeft=6;overflow=hidden;fontColor=#ffffff;strokeColor=#006EAF;" vertex="1" parent="vZxhdcHR_vcOyk7ja_Zl-164">
          <mxGeometry x="30" width="180" height="30" as="geometry">
            <mxRectangle width="180" height="30" as="alternateBounds" />
          </mxGeometry>
        </mxCell>
        <mxCell id="vZxhdcHR_vcOyk7ja_Zl-167" value="" style="shape=tableRow;horizontal=0;startSize=0;swimlaneHead=0;swimlaneBody=0;fillColor=#1ba1e2;collapsible=0;dropTarget=0;points=[[0,0.5],[1,0.5]];portConstraint=eastwest;top=0;left=0;right=0;bottom=0;fontColor=#ffffff;strokeColor=#006EAF;" vertex="1" parent="vZxhdcHR_vcOyk7ja_Zl-148">
          <mxGeometry y="210" width="210" height="30" as="geometry" />
        </mxCell>
        <mxCell id="vZxhdcHR_vcOyk7ja_Zl-168" value="" style="shape=partialRectangle;connectable=0;fillColor=#CC99FF;top=0;left=0;bottom=0;right=0;editable=1;overflow=hidden;fontColor=#ffffff;strokeColor=#006EAF;" vertex="1" parent="vZxhdcHR_vcOyk7ja_Zl-167">
          <mxGeometry width="30" height="30" as="geometry">
            <mxRectangle width="30" height="30" as="alternateBounds" />
          </mxGeometry>
        </mxCell>
        <mxCell id="vZxhdcHR_vcOyk7ja_Zl-169" value="Bildirilen_Kisi Varchar(100)" style="shape=partialRectangle;connectable=0;fillColor=#CC99FF;top=0;left=0;bottom=0;right=0;align=left;spacingLeft=6;overflow=hidden;fontColor=#ffffff;strokeColor=#006EAF;" vertex="1" parent="vZxhdcHR_vcOyk7ja_Zl-167">
          <mxGeometry x="30" width="180" height="30" as="geometry">
            <mxRectangle width="180" height="30" as="alternateBounds" />
          </mxGeometry>
        </mxCell>
        <mxCell id="vZxhdcHR_vcOyk7ja_Zl-170" value="" style="shape=tableRow;horizontal=0;startSize=0;swimlaneHead=0;swimlaneBody=0;fillColor=#1ba1e2;collapsible=0;dropTarget=0;points=[[0,0.5],[1,0.5]];portConstraint=eastwest;top=0;left=0;right=0;bottom=0;fontColor=#ffffff;strokeColor=#006EAF;" vertex="1" parent="vZxhdcHR_vcOyk7ja_Zl-148">
          <mxGeometry y="240" width="210" height="30" as="geometry" />
        </mxCell>
        <mxCell id="vZxhdcHR_vcOyk7ja_Zl-171" value="" style="shape=partialRectangle;connectable=0;fillColor=#CC99FF;top=0;left=0;bottom=0;right=0;editable=1;overflow=hidden;fontColor=#ffffff;strokeColor=#006EAF;" vertex="1" parent="vZxhdcHR_vcOyk7ja_Zl-170">
          <mxGeometry width="30" height="30" as="geometry">
            <mxRectangle width="30" height="30" as="alternateBounds" />
          </mxGeometry>
        </mxCell>
        <mxCell id="vZxhdcHR_vcOyk7ja_Zl-172" value="Bildirim_Tarihi DATETIME" style="shape=partialRectangle;connectable=0;fillColor=#CC99FF;top=0;left=0;bottom=0;right=0;align=left;spacingLeft=6;overflow=hidden;fontColor=#ffffff;strokeColor=#006EAF;" vertex="1" parent="vZxhdcHR_vcOyk7ja_Zl-170">
          <mxGeometry x="30" width="180" height="30" as="geometry">
            <mxRectangle width="180" height="30" as="alternateBounds" />
          </mxGeometry>
        </mxCell>
        <mxCell id="vZxhdcHR_vcOyk7ja_Zl-173" value="" style="shape=tableRow;horizontal=0;startSize=0;swimlaneHead=0;swimlaneBody=0;fillColor=#1ba1e2;collapsible=0;dropTarget=0;points=[[0,0.5],[1,0.5]];portConstraint=eastwest;top=0;left=0;right=0;bottom=0;fontColor=#ffffff;strokeColor=#006EAF;" vertex="1" parent="vZxhdcHR_vcOyk7ja_Zl-148">
          <mxGeometry y="270" width="210" height="30" as="geometry" />
        </mxCell>
        <mxCell id="vZxhdcHR_vcOyk7ja_Zl-174" value="" style="shape=partialRectangle;connectable=0;fillColor=#CC99FF;top=0;left=0;bottom=0;right=0;editable=1;overflow=hidden;fontColor=#ffffff;strokeColor=#006EAF;" vertex="1" parent="vZxhdcHR_vcOyk7ja_Zl-173">
          <mxGeometry width="30" height="30" as="geometry">
            <mxRectangle width="30" height="30" as="alternateBounds" />
          </mxGeometry>
        </mxCell>
        <mxCell id="vZxhdcHR_vcOyk7ja_Zl-175" value="Mudahale_Durumu Varchar(20)" style="shape=partialRectangle;connectable=0;fillColor=#CC99FF;top=0;left=0;bottom=0;right=0;align=left;spacingLeft=6;overflow=hidden;fontColor=#ffffff;strokeColor=#006EAF;" vertex="1" parent="vZxhdcHR_vcOyk7ja_Zl-173">
          <mxGeometry x="30" width="180" height="30" as="geometry">
            <mxRectangle width="180" height="30" as="alternateBounds" />
          </mxGeometry>
        </mxCell>
        <mxCell id="vZxhdcHR_vcOyk7ja_Zl-176" value="GeriBildirimveDegerlendirmeKayitlari" style="shape=table;startSize=30;container=1;collapsible=1;childLayout=tableLayout;fixedRows=1;rowLines=0;fontStyle=1;align=center;resizeLast=1;html=1;fillColor=#7F00FF;fontColor=#ffffff;strokeColor=#001DBC;" vertex="1" parent="1">
          <mxGeometry x="1120" y="700" width="270" height="270" as="geometry">
            <mxRectangle x="140" y="120" width="100" height="30" as="alternateBounds" />
          </mxGeometry>
        </mxCell>
        <mxCell id="vZxhdcHR_vcOyk7ja_Zl-177" value="" style="shape=tableRow;horizontal=0;startSize=0;swimlaneHead=0;swimlaneBody=0;collapsible=0;dropTarget=0;points=[[0,0.5],[1,0.5]];portConstraint=eastwest;top=0;left=0;right=0;bottom=1;fillColor=#1ba1e2;fontColor=#ffffff;strokeColor=#006EAF;" vertex="1" parent="vZxhdcHR_vcOyk7ja_Zl-176">
          <mxGeometry y="30" width="270" height="30" as="geometry" />
        </mxCell>
        <mxCell id="vZxhdcHR_vcOyk7ja_Zl-178" value="PK" style="shape=partialRectangle;connectable=0;top=0;left=0;bottom=0;right=0;fontStyle=1;overflow=hidden;whiteSpace=wrap;html=1;fillColor=#CC99FF;fontColor=#ffffff;strokeColor=#006EAF;" vertex="1" parent="vZxhdcHR_vcOyk7ja_Zl-177">
          <mxGeometry width="30" height="30" as="geometry">
            <mxRectangle width="30" height="30" as="alternateBounds" />
          </mxGeometry>
        </mxCell>
        <mxCell id="vZxhdcHR_vcOyk7ja_Zl-179" value="GeriBildirimveDegerlendirmeID INT" style="shape=partialRectangle;connectable=0;top=0;left=0;bottom=0;right=0;align=left;spacingLeft=6;fontStyle=5;overflow=hidden;whiteSpace=wrap;html=1;fillColor=#CC99FF;fontColor=#ffffff;strokeColor=#006EAF;" vertex="1" parent="vZxhdcHR_vcOyk7ja_Zl-177">
          <mxGeometry x="30" width="240" height="30" as="geometry">
            <mxRectangle width="240" height="30" as="alternateBounds" />
          </mxGeometry>
        </mxCell>
        <mxCell id="vZxhdcHR_vcOyk7ja_Zl-180" value="" style="shape=tableRow;horizontal=0;startSize=0;swimlaneHead=0;swimlaneBody=0;collapsible=0;dropTarget=0;points=[[0,0.5],[1,0.5]];portConstraint=eastwest;top=0;left=0;right=0;bottom=0;fillColor=#1ba1e2;fontColor=#ffffff;strokeColor=#006EAF;" vertex="1" parent="vZxhdcHR_vcOyk7ja_Zl-176">
          <mxGeometry y="60" width="270" height="30" as="geometry" />
        </mxCell>
        <mxCell id="vZxhdcHR_vcOyk7ja_Zl-181" value="FK" style="shape=partialRectangle;connectable=0;top=0;left=0;bottom=0;right=0;editable=1;overflow=hidden;whiteSpace=wrap;html=1;fillColor=#CC99FF;fontColor=#ffffff;strokeColor=#006EAF;" vertex="1" parent="vZxhdcHR_vcOyk7ja_Zl-180">
          <mxGeometry width="30" height="30" as="geometry">
            <mxRectangle width="30" height="30" as="alternateBounds" />
          </mxGeometry>
        </mxCell>
        <mxCell id="vZxhdcHR_vcOyk7ja_Zl-182" value="GorusmeID INT" style="shape=partialRectangle;connectable=0;top=0;left=0;bottom=0;right=0;align=left;spacingLeft=6;overflow=hidden;whiteSpace=wrap;html=1;fillColor=#CC99FF;fontColor=#ffffff;strokeColor=#006EAF;" vertex="1" parent="vZxhdcHR_vcOyk7ja_Zl-180">
          <mxGeometry x="30" width="240" height="30" as="geometry">
            <mxRectangle width="240" height="30" as="alternateBounds" />
          </mxGeometry>
        </mxCell>
        <mxCell id="vZxhdcHR_vcOyk7ja_Zl-183" value="" style="shape=tableRow;horizontal=0;startSize=0;swimlaneHead=0;swimlaneBody=0;collapsible=0;dropTarget=0;points=[[0,0.5],[1,0.5]];portConstraint=eastwest;top=0;left=0;right=0;bottom=0;fillColor=#1ba1e2;fontColor=#ffffff;strokeColor=#006EAF;" vertex="1" parent="vZxhdcHR_vcOyk7ja_Zl-176">
          <mxGeometry y="90" width="270" height="30" as="geometry" />
        </mxCell>
        <mxCell id="vZxhdcHR_vcOyk7ja_Zl-184" value="" style="shape=partialRectangle;connectable=0;top=0;left=0;bottom=0;right=0;editable=1;overflow=hidden;whiteSpace=wrap;html=1;fillColor=#CC99FF;fontColor=#ffffff;strokeColor=#006EAF;" vertex="1" parent="vZxhdcHR_vcOyk7ja_Zl-183">
          <mxGeometry width="30" height="30" as="geometry">
            <mxRectangle width="30" height="30" as="alternateBounds" />
          </mxGeometry>
        </mxCell>
        <mxCell id="vZxhdcHR_vcOyk7ja_Zl-185" value="VerenKullaniciID INT" style="shape=partialRectangle;connectable=0;top=0;left=0;bottom=0;right=0;align=left;spacingLeft=6;overflow=hidden;whiteSpace=wrap;html=1;fillColor=#CC99FF;fontColor=#ffffff;strokeColor=#006EAF;" vertex="1" parent="vZxhdcHR_vcOyk7ja_Zl-183">
          <mxGeometry x="30" width="240" height="30" as="geometry">
            <mxRectangle width="240" height="30" as="alternateBounds" />
          </mxGeometry>
        </mxCell>
        <mxCell id="vZxhdcHR_vcOyk7ja_Zl-186" value="" style="shape=tableRow;horizontal=0;startSize=0;swimlaneHead=0;swimlaneBody=0;collapsible=0;dropTarget=0;points=[[0,0.5],[1,0.5]];portConstraint=eastwest;top=0;left=0;right=0;bottom=0;fillColor=#1ba1e2;fontColor=#ffffff;strokeColor=#006EAF;" vertex="1" parent="vZxhdcHR_vcOyk7ja_Zl-176">
          <mxGeometry y="120" width="270" height="30" as="geometry" />
        </mxCell>
        <mxCell id="vZxhdcHR_vcOyk7ja_Zl-187" value="" style="shape=partialRectangle;connectable=0;top=0;left=0;bottom=0;right=0;editable=1;overflow=hidden;whiteSpace=wrap;html=1;fillColor=#CC99FF;fontColor=#ffffff;strokeColor=#006EAF;" vertex="1" parent="vZxhdcHR_vcOyk7ja_Zl-186">
          <mxGeometry width="30" height="30" as="geometry">
            <mxRectangle width="30" height="30" as="alternateBounds" />
          </mxGeometry>
        </mxCell>
        <mxCell id="vZxhdcHR_vcOyk7ja_Zl-188" value="Kullanici_Tipi Varchar(20)" style="shape=partialRectangle;connectable=0;top=0;left=0;bottom=0;right=0;align=left;spacingLeft=6;overflow=hidden;whiteSpace=wrap;html=1;fillColor=#CC99FF;fontColor=#ffffff;strokeColor=#006EAF;" vertex="1" parent="vZxhdcHR_vcOyk7ja_Zl-186">
          <mxGeometry x="30" width="240" height="30" as="geometry">
            <mxRectangle width="240" height="30" as="alternateBounds" />
          </mxGeometry>
        </mxCell>
        <mxCell id="vZxhdcHR_vcOyk7ja_Zl-189" value="" style="shape=tableRow;horizontal=0;startSize=0;swimlaneHead=0;swimlaneBody=0;fillColor=#1ba1e2;collapsible=0;dropTarget=0;points=[[0,0.5],[1,0.5]];portConstraint=eastwest;top=0;left=0;right=0;bottom=0;fontColor=#ffffff;strokeColor=#006EAF;" vertex="1" parent="vZxhdcHR_vcOyk7ja_Zl-176">
          <mxGeometry y="150" width="270" height="30" as="geometry" />
        </mxCell>
        <mxCell id="vZxhdcHR_vcOyk7ja_Zl-190" value="" style="shape=partialRectangle;connectable=0;fillColor=#CC99FF;top=0;left=0;bottom=0;right=0;editable=1;overflow=hidden;fontColor=#ffffff;strokeColor=#006EAF;" vertex="1" parent="vZxhdcHR_vcOyk7ja_Zl-189">
          <mxGeometry width="30" height="30" as="geometry">
            <mxRectangle width="30" height="30" as="alternateBounds" />
          </mxGeometry>
        </mxCell>
        <mxCell id="vZxhdcHR_vcOyk7ja_Zl-191" value="Puan INT" style="shape=partialRectangle;connectable=0;fillColor=#CC99FF;top=0;left=0;bottom=0;right=0;align=left;spacingLeft=6;overflow=hidden;fontColor=#ffffff;strokeColor=#006EAF;" vertex="1" parent="vZxhdcHR_vcOyk7ja_Zl-189">
          <mxGeometry x="30" width="240" height="30" as="geometry">
            <mxRectangle width="240" height="30" as="alternateBounds" />
          </mxGeometry>
        </mxCell>
        <mxCell id="vZxhdcHR_vcOyk7ja_Zl-192" value="" style="shape=tableRow;horizontal=0;startSize=0;swimlaneHead=0;swimlaneBody=0;fillColor=#1ba1e2;collapsible=0;dropTarget=0;points=[[0,0.5],[1,0.5]];portConstraint=eastwest;top=0;left=0;right=0;bottom=0;fontColor=#ffffff;strokeColor=#006EAF;" vertex="1" parent="vZxhdcHR_vcOyk7ja_Zl-176">
          <mxGeometry y="180" width="270" height="30" as="geometry" />
        </mxCell>
        <mxCell id="vZxhdcHR_vcOyk7ja_Zl-193" value="" style="shape=partialRectangle;connectable=0;fillColor=#CC99FF;top=0;left=0;bottom=0;right=0;editable=1;overflow=hidden;fontColor=#ffffff;strokeColor=#006EAF;" vertex="1" parent="vZxhdcHR_vcOyk7ja_Zl-192">
          <mxGeometry width="30" height="30" as="geometry">
            <mxRectangle width="30" height="30" as="alternateBounds" />
          </mxGeometry>
        </mxCell>
        <mxCell id="vZxhdcHR_vcOyk7ja_Zl-194" value="Yorum TEXT" style="shape=partialRectangle;connectable=0;fillColor=#CC99FF;top=0;left=0;bottom=0;right=0;align=left;spacingLeft=6;overflow=hidden;fontColor=#ffffff;strokeColor=#006EAF;" vertex="1" parent="vZxhdcHR_vcOyk7ja_Zl-192">
          <mxGeometry x="30" width="240" height="30" as="geometry">
            <mxRectangle width="240" height="30" as="alternateBounds" />
          </mxGeometry>
        </mxCell>
        <mxCell id="vZxhdcHR_vcOyk7ja_Zl-195" value="" style="shape=tableRow;horizontal=0;startSize=0;swimlaneHead=0;swimlaneBody=0;fillColor=#1ba1e2;collapsible=0;dropTarget=0;points=[[0,0.5],[1,0.5]];portConstraint=eastwest;top=0;left=0;right=0;bottom=0;fontColor=#ffffff;strokeColor=#006EAF;" vertex="1" parent="vZxhdcHR_vcOyk7ja_Zl-176">
          <mxGeometry y="210" width="270" height="30" as="geometry" />
        </mxCell>
        <mxCell id="vZxhdcHR_vcOyk7ja_Zl-196" value="" style="shape=partialRectangle;connectable=0;fillColor=#CC99FF;top=0;left=0;bottom=0;right=0;editable=1;overflow=hidden;fontColor=#ffffff;strokeColor=#006EAF;" vertex="1" parent="vZxhdcHR_vcOyk7ja_Zl-195">
          <mxGeometry width="30" height="30" as="geometry">
            <mxRectangle width="30" height="30" as="alternateBounds" />
          </mxGeometry>
        </mxCell>
        <mxCell id="vZxhdcHR_vcOyk7ja_Zl-197" value="Anonim BOOLEAN" style="shape=partialRectangle;connectable=0;fillColor=#CC99FF;top=0;left=0;bottom=0;right=0;align=left;spacingLeft=6;overflow=hidden;fontColor=#ffffff;strokeColor=#006EAF;" vertex="1" parent="vZxhdcHR_vcOyk7ja_Zl-195">
          <mxGeometry x="30" width="240" height="30" as="geometry">
            <mxRectangle width="240" height="30" as="alternateBounds" />
          </mxGeometry>
        </mxCell>
        <mxCell id="vZxhdcHR_vcOyk7ja_Zl-198" value="" style="shape=tableRow;horizontal=0;startSize=0;swimlaneHead=0;swimlaneBody=0;fillColor=#1ba1e2;collapsible=0;dropTarget=0;points=[[0,0.5],[1,0.5]];portConstraint=eastwest;top=0;left=0;right=0;bottom=0;fontColor=#ffffff;strokeColor=#006EAF;" vertex="1" parent="vZxhdcHR_vcOyk7ja_Zl-176">
          <mxGeometry y="240" width="270" height="30" as="geometry" />
        </mxCell>
        <mxCell id="vZxhdcHR_vcOyk7ja_Zl-199" value="" style="shape=partialRectangle;connectable=0;fillColor=#CC99FF;top=0;left=0;bottom=0;right=0;editable=1;overflow=hidden;fontColor=#ffffff;strokeColor=#006EAF;" vertex="1" parent="vZxhdcHR_vcOyk7ja_Zl-198">
          <mxGeometry width="30" height="30" as="geometry">
            <mxRectangle width="30" height="30" as="alternateBounds" />
          </mxGeometry>
        </mxCell>
        <mxCell id="vZxhdcHR_vcOyk7ja_Zl-200" value="Tarih DATETIME" style="shape=partialRectangle;connectable=0;fillColor=#CC99FF;top=0;left=0;bottom=0;right=0;align=left;spacingLeft=6;overflow=hidden;fontColor=#ffffff;strokeColor=#006EAF;" vertex="1" parent="vZxhdcHR_vcOyk7ja_Zl-198">
          <mxGeometry x="30" width="240" height="30" as="geometry">
            <mxRectangle width="240" height="30" as="alternateBounds" />
          </mxGeometry>
        </mxCell>
        <mxCell id="vZxhdcHR_vcOyk7ja_Zl-201" value="" style="edgeStyle=entityRelationEdgeStyle;fontSize=12;html=1;endArrow=ERzeroToMany;startArrow=ERmandOne;rounded=0;exitX=1;exitY=0.5;exitDx=0;exitDy=0;entryX=0;entryY=0.5;entryDx=0;entryDy=0;" edge="1" parent="1" source="vZxhdcHR_vcOyk7ja_Zl-2" target="vZxhdcHR_vcOyk7ja_Zl-124">
          <mxGeometry width="100" height="100" relative="1" as="geometry">
            <mxPoint x="1010" y="220" as="sourcePoint" />
            <mxPoint x="1190" y="220" as="targetPoint" />
          </mxGeometry>
        </mxCell>
        <mxCell id="vZxhdcHR_vcOyk7ja_Zl-202" value="" style="edgeStyle=entityRelationEdgeStyle;fontSize=12;html=1;endArrow=ERzeroToMany;startArrow=ERmandOne;rounded=0;exitX=1;exitY=0.5;exitDx=0;exitDy=0;entryX=0;entryY=0.5;entryDx=0;entryDy=0;" edge="1" parent="1" source="vZxhdcHR_vcOyk7ja_Zl-2" target="vZxhdcHR_vcOyk7ja_Zl-105">
          <mxGeometry width="100" height="100" relative="1" as="geometry">
            <mxPoint x="980" y="360" as="sourcePoint" />
            <mxPoint x="1150" y="180" as="targetPoint" />
          </mxGeometry>
        </mxCell>
        <mxCell id="vZxhdcHR_vcOyk7ja_Zl-203" value="" style="edgeStyle=entityRelationEdgeStyle;fontSize=12;html=1;endArrow=ERzeroToMany;startArrow=ERmandOne;rounded=0;exitX=1;exitY=0.5;exitDx=0;exitDy=0;entryX=0;entryY=0.5;entryDx=0;entryDy=0;" edge="1" parent="1" source="vZxhdcHR_vcOyk7ja_Zl-30" target="vZxhdcHR_vcOyk7ja_Zl-108">
          <mxGeometry width="100" height="100" relative="1" as="geometry">
            <mxPoint x="1030" y="610" as="sourcePoint" />
            <mxPoint x="1200" y="430" as="targetPoint" />
          </mxGeometry>
        </mxCell>
        <mxCell id="vZxhdcHR_vcOyk7ja_Zl-204" value="" style="edgeStyle=entityRelationEdgeStyle;fontSize=12;html=1;endArrow=ERzeroToMany;startArrow=ERmandOne;rounded=0;exitX=0;exitY=0.5;exitDx=0;exitDy=0;entryX=1;entryY=0.5;entryDx=0;entryDy=0;" edge="1" parent="1" source="vZxhdcHR_vcOyk7ja_Zl-2" target="vZxhdcHR_vcOyk7ja_Zl-61">
          <mxGeometry width="100" height="100" relative="1" as="geometry">
            <mxPoint x="640" y="570" as="sourcePoint" />
            <mxPoint x="670" y="610" as="targetPoint" />
          </mxGeometry>
        </mxCell>
        <mxCell id="vZxhdcHR_vcOyk7ja_Zl-205" value="" style="edgeStyle=entityRelationEdgeStyle;fontSize=12;html=1;endArrow=ERzeroToMany;startArrow=ERmandOne;rounded=0;exitX=0;exitY=0.5;exitDx=0;exitDy=0;entryX=1;entryY=0.5;entryDx=0;entryDy=0;" edge="1" parent="1" source="vZxhdcHR_vcOyk7ja_Zl-30" target="vZxhdcHR_vcOyk7ja_Zl-64">
          <mxGeometry width="100" height="100" relative="1" as="geometry">
            <mxPoint x="670" y="890" as="sourcePoint" />
            <mxPoint x="840" y="530" as="targetPoint" />
          </mxGeometry>
        </mxCell>
        <mxCell id="vZxhdcHR_vcOyk7ja_Zl-206" value="" style="edgeStyle=entityRelationEdgeStyle;fontSize=12;html=1;endArrow=ERmandOne;startArrow=ERmandOne;rounded=0;exitX=1;exitY=0.5;exitDx=0;exitDy=0;entryX=0;entryY=0.5;entryDx=0;entryDy=0;" edge="1" parent="1" source="vZxhdcHR_vcOyk7ja_Zl-58" target="vZxhdcHR_vcOyk7ja_Zl-83">
          <mxGeometry width="100" height="100" relative="1" as="geometry">
            <mxPoint x="550" y="734.5" as="sourcePoint" />
            <mxPoint x="760" y="644.5" as="targetPoint" />
          </mxGeometry>
        </mxCell>
        <mxCell id="vZxhdcHR_vcOyk7ja_Zl-207" value="" style="edgeStyle=entityRelationEdgeStyle;fontSize=12;html=1;endArrow=ERmandOne;startArrow=ERmandOne;rounded=0;exitX=1;exitY=0.5;exitDx=0;exitDy=0;entryX=0;entryY=0.5;entryDx=0;entryDy=0;" edge="1" parent="1" source="vZxhdcHR_vcOyk7ja_Zl-80" target="vZxhdcHR_vcOyk7ja_Zl-102">
          <mxGeometry width="100" height="100" relative="1" as="geometry">
            <mxPoint x="1010" y="490" as="sourcePoint" />
            <mxPoint x="1220" y="400" as="targetPoint" />
          </mxGeometry>
        </mxCell>
        <mxCell id="vZxhdcHR_vcOyk7ja_Zl-208" value="" style="edgeStyle=entityRelationEdgeStyle;fontSize=12;html=1;endArrow=ERmandOne;startArrow=ERmandOne;rounded=0;exitX=1;exitY=0.5;exitDx=0;exitDy=0;entryX=0;entryY=0.5;entryDx=0;entryDy=0;" edge="1" parent="1" source="vZxhdcHR_vcOyk7ja_Zl-158" target="vZxhdcHR_vcOyk7ja_Zl-80">
          <mxGeometry width="100" height="100" relative="1" as="geometry">
            <mxPoint x="550" y="640" as="sourcePoint" />
            <mxPoint x="740" y="530" as="targetPoint" />
          </mxGeometry>
        </mxCell>
        <mxCell id="vZxhdcHR_vcOyk7ja_Zl-209" value="" style="edgeStyle=entityRelationEdgeStyle;fontSize=12;html=1;endArrow=ERzeroToMany;startArrow=ERmandOne;rounded=0;entryX=1;entryY=0.25;entryDx=0;entryDy=0;exitX=0;exitY=0.5;exitDx=0;exitDy=0;" edge="1" parent="1" source="vZxhdcHR_vcOyk7ja_Zl-30" target="vZxhdcHR_vcOyk7ja_Zl-148">
          <mxGeometry width="100" height="100" relative="1" as="geometry">
            <mxPoint x="670" y="280" as="sourcePoint" />
            <mxPoint x="500" y="725" as="targetPoint" />
          </mxGeometry>
        </mxCell>
        <mxCell id="vZxhdcHR_vcOyk7ja_Zl-210" value="" style="edgeStyle=entityRelationEdgeStyle;fontSize=12;html=1;endArrow=ERzeroToMany;startArrow=ERmandOne;rounded=0;entryX=1;entryY=0.5;entryDx=0;entryDy=0;exitX=0;exitY=0.5;exitDx=0;exitDy=0;" edge="1" parent="1" source="vZxhdcHR_vcOyk7ja_Zl-2" target="vZxhdcHR_vcOyk7ja_Zl-155">
          <mxGeometry width="100" height="100" relative="1" as="geometry">
            <mxPoint x="750" y="885" as="sourcePoint" />
            <mxPoint x="560" y="435" as="targetPoint" />
          </mxGeometry>
        </mxCell>
        <mxCell id="vZxhdcHR_vcOyk7ja_Zl-211" value="" style="edgeStyle=entityRelationEdgeStyle;fontSize=12;html=1;endArrow=ERzeroToMany;startArrow=ERmandOne;rounded=0;exitX=1;exitY=0.5;exitDx=0;exitDy=0;entryX=0;entryY=0.5;entryDx=0;entryDy=0;" edge="1" parent="1" source="vZxhdcHR_vcOyk7ja_Zl-80" target="vZxhdcHR_vcOyk7ja_Zl-180">
          <mxGeometry width="100" height="100" relative="1" as="geometry">
            <mxPoint x="960" y="885" as="sourcePoint" />
            <mxPoint x="1130" y="525" as="targetPoint" />
          </mxGeometry>
        </mxCell>
      </root>
    </mxGraphModel>
  </diagram>
</mxfile>
